<svg width="2177" height="1257" viewBox="0 0 2177 1257" fill="none" xmlns="http://www.w3.org/2000/svg">
<path d="M405.678 41.2647C405.678 76.2772 401.891 102.224 380.435 206.324C366.551 274.16 354.35 332.619 353.088 336.058C352.247 339.809 343.832 351.063 334.997 361.379L319.01 379.823L203.313 412.022C139.785 429.841 86.3536 445.472 84.6708 446.722C82.5672 448.285 104.024 453.599 131.791 458.601L182.698 468.292L241.598 452.974L300.499 437.969L301.34 606.467L302.602 775.277L448.591 689.934L594.159 604.904L595.842 533.315L597.104 461.727L667.784 448.91C706.49 442.033 738.044 435.781 738.044 434.843C738.044 433.905 716.588 422.651 690.503 409.834L642.962 386.388L530.631 233.833L418.299 80.9664V40.6395C418.299 6.56483 417.458 -1.04904e-05 411.989 -1.04904e-05C406.519 -1.04904e-05 405.678 6.56483 405.678 41.2647Z" fill="#590000" fill-opacity="0.02"/>
<path fill-rule="evenodd" clip-rule="evenodd" d="M1125.08 487.675C1125.08 527.064 1123.82 559.576 1122.56 559.576C1120.88 559.576 1105.73 550.197 1088.9 538.943L1057.77 518.311V488.926C1057.77 472.67 1056.08 459.54 1054.4 459.54C1052.72 459.54 995.501 451.1 928.187 440.783C860.451 430.467 801.972 422.027 798.606 422.027C793.137 422.027 792.716 427.654 795.24 461.728C796.502 483.924 799.027 506.119 800.709 511.121C802.813 518.624 844.464 550.51 979.093 648.357L1154.53 776.216V852.493V929.083L1122.14 927.207C1105.24 926.331 1061.53 924.363 1021.89 922.579L1013.59 922.205C971.941 920.642 923.979 918.141 907.572 917.203L876.859 915.328V887.818V860.308L915.986 834.361C937.022 819.981 954.692 807.477 954.692 806.539C954.692 802.162 714.462 563.327 711.938 565.203C710.255 566.453 677.019 617.409 637.892 678.368L566.791 789.345L289.538 816.543C136.818 831.548 7.65797 844.052 1.76793 844.678C-5.80498 845.303 10.603 851.868 57.7233 866.56L123.776 887.505L326.982 873.75C438.472 866.248 537.761 859.37 547.859 858.433L565.529 856.557V890.944V925.331H577.309C583.619 925.331 646.306 923.143 716.566 920.642C786.826 917.829 845.305 916.266 846.147 917.203C848.25 918.767 840.678 975.349 836.47 991.605C834.367 999.733 832.684 1000.36 811.227 1000.36H788.509V1128.53V1256.7H832.684H876.859V1128.22V999.42L920.193 1001.3C943.753 1002.55 998.026 1004.11 1040.94 1005.05C1083.85 1005.99 1126.77 1007.55 1136.86 1008.49L1154.53 1010.05V1256.7H1718.71H2176.87V1033.5V838.738L2042.67 742.141L1908.46 645.544L1908.04 595.214C1907.62 548.009 1907.2 544.57 1899.62 543.007C1894.99 542.07 1890.37 542.382 1889.1 543.32C1887.84 544.258 1886.58 567.391 1886.58 594.588V644.294L1855.03 623.349C1837.78 611.782 1823.47 599.903 1823.47 597.089C1823.47 594.276 1817.16 587.398 1809.59 582.084C1796.13 572.393 1790.66 571.142 1698.94 558.013C1645.93 550.197 1598.39 543.007 1593.34 542.382C1584.51 540.819 1583.66 538.943 1583.66 516.123C1583.66 492.364 1583.24 491.426 1573.15 490.176L1562.63 488.613L1561.79 549.572L1560.52 610.531L1528.13 589.586L1495.31 568.329V547.384V526.752L1366.15 506.744C1294.63 496.116 1218.06 484.236 1195.76 480.798L1154.53 474.233V447.036C1154.53 421.401 1154.11 419.526 1145.28 417.65C1124.66 413.586 1125.08 411.398 1125.08 487.675ZM1493.21 715.882C1491.95 715.882 1464.6 713.693 1433.05 710.88L1375.41 706.191L1332.5 674.304L1289.16 642.418V653.359C1289.16 663.05 1293.79 667.739 1330.39 694.624L1371.2 724.635L1415.38 728.073C1429.03 729.298 1443.73 730.522 1455.81 731.527C1465.32 732.319 1473.19 732.975 1477.64 733.388C1487.32 734.415 1491.7 734.88 1493.68 733.497C1495.31 732.355 1495.31 729.954 1495.31 725.573C1495.31 720.258 1494.47 715.882 1493.21 715.882ZM1599.65 726.198L1558.84 695.874C1536.54 679.306 1516.77 665.864 1515.09 665.864C1513.4 665.864 1512.14 669.615 1512.14 674.617C1512.14 681.182 1520.98 689.622 1553.37 713.693L1595.02 744.329L1642.98 749.018C1712.4 755.271 1714.09 755.271 1714.09 744.642V735.889L1656.87 730.887L1599.65 726.198ZM1924.44 764.649C1924.44 756.209 1924.44 756.208 1857.13 749.956L1817.16 746.518L1774.25 714.631C1732.6 684.62 1730.91 683.683 1730.91 692.436C1730.91 700.251 1738.07 707.441 1772.14 732.45L1812.95 762.773L1860.92 767.463C1924.44 773.715 1924.44 773.715 1924.44 764.649ZM1688.84 1004.42L1631.2 1002.23C1599.23 1001.3 1549.16 999.42 1519.71 998.17L1465.86 996.294V1076.64V1156.66H1577.35H1688.84V1080.7V1004.42ZM1945.48 1013.49L1904.67 1011.61C1895.1 1011.22 1882.01 1010.71 1867.88 1010.16C1848.46 1009.41 1827.05 1008.58 1810.01 1007.86L1756.16 1005.99V1081.32V1156.66H1850.82H1945.48V1085.08V1013.49ZM2160.05 1089.77C2160.05 1052.88 2158.78 1021.93 2157.1 1021.3C2155 1020.37 2117.13 1018.8 2072.54 1017.55L1991.76 1015.05L1992.6 1085.08L1993.86 1155.1L2077.16 1156.04L2160.05 1156.66V1089.77Z" fill="#590000" fill-opacity="0.02"/>
<path fill-rule="evenodd" clip-rule="evenodd" d="M1493.21 715.882C1491.95 715.882 1464.6 713.693 1433.05 710.88L1375.41 706.191L1332.5 674.304L1289.16 642.418V653.359C1289.16 663.05 1293.79 667.739 1330.39 694.624L1371.2 724.635L1415.38 728.073C1429.03 729.298 1443.73 730.522 1455.81 731.527C1465.32 732.319 1473.19 732.975 1477.64 733.388C1487.32 734.415 1491.7 734.88 1493.68 733.497C1495.31 732.355 1495.31 729.954 1495.31 725.573C1495.31 720.258 1494.47 715.882 1493.21 715.882ZM1599.65 726.198L1558.84 695.874C1536.54 679.306 1516.77 665.864 1515.09 665.864C1513.4 665.864 1512.14 669.615 1512.14 674.617C1512.14 681.182 1520.98 689.622 1553.37 713.693L1595.02 744.329L1642.98 749.018C1712.4 755.271 1714.09 755.271 1714.09 744.642V735.889L1656.87 730.887L1599.65 726.198ZM1924.44 764.649C1924.44 756.209 1924.44 756.208 1857.13 749.956L1817.16 746.518L1774.25 714.631C1732.6 684.62 1730.91 683.683 1730.91 692.436C1730.91 700.251 1738.07 707.441 1772.14 732.45L1812.95 762.773L1860.92 767.463C1924.44 773.715 1924.44 773.715 1924.44 764.649Z" fill="#590000" fill-opacity="0.02"/>
<path d="M570.593 1005.05C482.243 1007.24 408.617 1009.74 407.355 1010.68C406.093 1011.61 424.184 1030.06 447.323 1051.63L490.236 1091.02H542.826H594.995L592.471 1173.86L589.526 1256.7L679.559 1256.08L769.593 1255.14L770.855 1127.59L771.696 1000.36L751.922 1000.67C740.563 1000.98 659.365 1002.86 570.593 1005.05Z" fill="#590000" fill-opacity="0.02"/>
</svg>
