<svg width="1440" height="644" viewBox="0 0 1440 644" fill="none" xmlns="http://www.w3.org/2000/svg">
<path d="M-7.82668e-05 1.00001C78.1666 1.00001 235.246 43.4049 304.843 95.5097C351.374 130.346 389.454 188.693 406.402 277.314C417.055 333.015 414.678 430.848 395.759 480.22C348.429 603.728 251.677 654.257 173.347 640.922C149.089 636.792 105.508 619.669 100.393 565.847C95.682 516.27 117.983 481.194 136.316 452.219C185.212 374.937 253.635 324.041 315.486 293.952C397.196 254.202 461.072 249.056 544.913 225.675C592.352 219.837 702.273 220.07 762.446 267.708C837.662 327.254 868.506 364.436 904.762 399.31C930.736 424.295 965.966 530.598 1076.3 567.441C1173.7 599.966 1557.36 595.963 1625 509.396" stroke="#590000" stroke-opacity="0.12" stroke-linecap="round"/>
</svg>
