<svg width="1440" height="761" viewBox="0 0 1440 761" fill="none" xmlns="http://www.w3.org/2000/svg">
<path d="M-148 -37C-69.8334 -37 87.2461 15.6428 156.843 80.3274C203.374 123.575 241.454 196.009 258.402 306.025C269.055 375.175 266.678 496.627 247.759 557.92C200.429 711.247 103.677 773.975 25.3475 757.42C1.08894 752.293 -42.4919 731.036 -47.6066 664.219C-52.3179 602.673 -30.0166 559.129 -11.6839 523.158C37.2124 427.218 105.636 364.034 167.487 326.68C249.196 277.333 294.5 257.565 396.913 241.919C444.352 234.671 554.273 234.961 614.446 294.1C689.662 368.022 720.506 414.181 756.762 457.475C782.736 488.492 817.966 620.461 928.299 666.199C1025.7 706.577 1409.36 701.607 1477 594.139" stroke="white" stroke-opacity="0.12" stroke-linecap="round"/>
</svg>
