<svg width="32" height="32" viewBox="0 0 32 32" fill="none" xmlns="http://www.w3.org/2000/svg">
<path d="M30.0283 5.26074H1.97175C0.884503 5.26074 0 6.14529 0 7.23254V16.2508C0 17.338 0.884503 18.2225 1.97175 18.2225H30.0282C31.1155 18.2225 32 17.338 32 16.2508V7.23254C32.0001 6.14529 31.1155 5.26074 30.0283 5.26074ZM31.0626 16.2508C31.0626 16.821 30.5986 17.285 30.0283 17.285H1.97175C1.40144 17.285 0.937503 16.8211 0.937503 16.2508V12.2104H12.493C12.7518 12.2104 12.9617 12.0005 12.9617 11.7416C12.9617 11.4828 12.7518 11.2729 12.493 11.2729H0.937503V7.23254C0.937503 6.66226 1.40144 6.19831 1.97175 6.19831H30.0282C30.5986 6.19831 31.0625 6.66226 31.0625 7.23254V11.2729H19.5069C19.2481 11.2729 19.0382 11.4828 19.0382 11.7416C19.0382 12.0005 19.2481 12.2104 19.5069 12.2104H31.0626V16.2508Z" fill="#522008"/>
<path d="M28.5251 13.2769H3.47463C2.93988 13.2769 2.50488 13.7119 2.50488 14.2466V15.2486C2.50488 15.7834 2.93988 16.2184 3.47463 16.2184H28.5251C29.0599 16.2184 29.4949 15.7834 29.4949 15.2486V14.2466C29.4948 13.7119 29.0598 13.2769 28.5251 13.2769ZM9.01803 15.2809H3.47463C3.45682 15.2809 3.44239 15.2665 3.44239 15.2487V14.2467C3.44239 14.2289 3.45682 14.2145 3.47463 14.2145H9.01803V15.2809ZM15.5311 15.2809H9.95552V14.2145H15.5311V15.2809ZM22.0441 15.2809H16.4686V14.2144H22.0441V15.2809ZM28.5573 15.2487C28.5573 15.2665 28.5429 15.2809 28.5251 15.2809H22.9817V14.2145H28.5251C28.5429 14.2145 28.5573 14.2289 28.5573 14.2467V15.2487Z" fill="#522008"/>
<path d="M17.5033 11.2729H14.4971C14.2382 11.2729 14.0283 11.4828 14.0283 11.7417C14.0283 12.0005 14.2382 12.2104 14.4971 12.2104H17.5033C17.7621 12.2104 17.972 12.0005 17.972 11.7417C17.972 11.4828 17.7621 11.2729 17.5033 11.2729Z" fill="#522008"/>
<path d="M8.80133 22.9178C8.55922 22.6958 8.45219 22.5874 8.45219 22.3442C8.45213 22.1021 8.55905 21.994 8.80093 21.7725C9.07665 21.5201 9.45419 21.1744 9.45419 20.5093C9.45419 20.2504 9.24431 20.0405 8.98545 20.0405C8.72659 20.0405 8.51671 20.2504 8.51671 20.5093C8.51671 20.7514 8.40973 20.8596 8.16779 21.081C7.89213 21.3335 7.51465 21.6792 7.51465 22.3442C7.51465 23.0099 7.89202 23.356 8.16756 23.6087C8.40968 23.8308 8.51671 23.9392 8.51671 24.1822C8.51671 24.4254 8.40968 24.5338 8.16762 24.7558C7.89208 25.0085 7.51471 25.3546 7.51471 26.0202C7.51471 26.2792 7.72459 26.489 7.98345 26.489C8.24231 26.489 8.45219 26.2792 8.45219 26.0202C8.45219 25.7772 8.55922 25.6687 8.80133 25.4467C9.07688 25.194 9.45425 24.8479 9.45425 24.1822C9.45425 23.5166 9.07688 23.1705 8.80133 22.9178Z" fill="#522008"/>
<path d="M12.309 22.9178C12.0669 22.6958 11.9599 22.5874 11.9599 22.3442C11.9599 22.1021 12.0669 21.994 12.3087 21.7725C12.5845 21.5201 12.9619 21.1744 12.9619 20.5093C12.9619 20.2504 12.7521 20.0405 12.4932 20.0405C12.2343 20.0405 12.0245 20.2504 12.0245 20.5093C12.0245 20.7514 11.9175 20.8596 11.6756 21.081C11.3999 21.3335 11.0225 21.6792 11.0225 22.3442C11.0225 23.0099 11.3998 23.356 11.6754 23.6087C11.9174 23.8308 12.0245 23.9392 12.0245 24.1822C12.0245 24.4254 11.9174 24.5338 11.6754 24.7558C11.3998 25.0085 11.0225 25.3547 11.0225 26.0202C11.0225 26.2792 11.2323 26.489 11.4912 26.489C11.7501 26.489 11.9599 26.2792 11.9599 26.0202C11.9599 25.7772 12.0669 25.6687 12.309 25.4467C12.5846 25.194 12.9619 24.8478 12.9619 24.1822C12.9619 23.5167 12.5846 23.1705 12.309 22.9178Z" fill="#522008"/>
<path d="M15.8159 22.9178C15.5738 22.6958 15.4668 22.5874 15.4668 22.3442C15.4668 22.1021 15.5737 21.994 15.8156 21.7725C16.0913 21.5201 16.4688 21.1744 16.4688 20.5093C16.4688 20.2504 16.2589 20.0405 16 20.0405C15.7412 20.0405 15.5313 20.2504 15.5313 20.5093C15.5313 20.7514 15.4243 20.8596 15.1825 21.081C14.9068 21.3335 14.5293 21.6792 14.5293 22.3442C14.5293 23.0099 14.9067 23.356 15.1822 23.6087C15.4243 23.8308 15.5313 23.9392 15.5313 24.1822C15.5313 24.4254 15.4243 24.5338 15.1822 24.7558C14.9067 25.0085 14.5293 25.3547 14.5293 26.0202C14.5293 26.2792 14.7392 26.489 14.998 26.489C15.2569 26.489 15.4668 26.2792 15.4668 26.0202C15.4668 25.7772 15.5738 25.6687 15.8159 25.4467C16.0914 25.194 16.4688 24.8478 16.4688 24.1822C16.4688 23.5167 16.0914 23.1705 15.8159 22.9178Z" fill="#522008"/>
<path d="M24.3492 24.3619L22.4491 23.2648L24.3492 22.1678C24.5735 22.0383 24.6503 21.7516 24.5208 21.5274C24.3914 21.3032 24.1047 21.2264 23.8805 21.3559L21.9803 22.453V20.2588C21.9803 19.9999 21.7704 19.79 21.5116 19.79C21.2527 19.79 21.0428 19.9999 21.0428 20.2588V22.453L19.1426 21.3559C18.9184 21.2264 18.6318 21.3032 18.5023 21.5274C18.3729 21.7516 18.4497 22.0383 18.6739 22.1678L20.5741 23.2648L18.6739 24.3619C18.4497 24.4913 18.3729 24.778 18.5023 25.0022C18.5891 25.1526 18.7467 25.2366 18.9087 25.2366C18.9882 25.2366 19.0688 25.2164 19.1426 25.1738L21.0428 24.0767V26.2708C21.0428 26.5297 21.2527 26.7396 21.5116 26.7396C21.7704 26.7396 21.9803 26.5297 21.9803 26.2708V24.0767L23.8805 25.1738C23.9543 25.2164 24.035 25.2366 24.1144 25.2366C24.2764 25.2366 24.434 25.1525 24.5208 25.0022C24.6503 24.778 24.5735 24.4913 24.3492 24.3619Z" fill="#522008"/>
</svg>
