<svg width="32" height="32" viewBox="0 0 32 32" fill="none" xmlns="http://www.w3.org/2000/svg">
<g clip-path="url(#clip0_366_1713)">
<path d="M31.3597 9.06898C31.3284 6.87061 30.4393 4.77149 28.8822 3.21937C27.325 1.66724 25.223 0.78498 23.0246 0.760766C20.8261 0.736552 18.7052 1.5723 17.1142 3.08975C15.5233 4.6072 14.5882 6.68623 14.5085 8.88338L1.13888 25.8882C1.04311 26.0111 0.995474 26.1647 1.0049 26.3202C1.01433 26.4758 1.08017 26.6225 1.19008 26.733L2.77728 28.3202L0.85728 30.2402C0.797293 30.2997 0.749681 30.3705 0.717189 30.4484C0.684697 30.5264 0.667969 30.6101 0.667969 30.6946C0.667969 30.7791 0.684697 30.8627 0.717189 30.9407C0.749681 31.0187 0.797293 31.0895 0.85728 31.149C0.916776 31.209 0.987561 31.2566 1.06555 31.2891C1.14354 31.3216 1.22719 31.3383 1.31168 31.3383C1.39617 31.3383 1.47982 31.3216 1.55781 31.2891C1.6358 31.2566 1.70658 31.209 1.76608 31.149L3.68608 29.197L5.27328 30.7842C5.38373 30.8941 5.53048 30.9599 5.68601 30.9694C5.84154 30.9788 5.99517 30.9311 6.11808 30.8354L23.1165 17.4914C25.3185 17.4429 27.4141 16.5344 28.9547 14.9603C30.4953 13.3862 31.3585 11.2715 31.3597 9.06898ZM5.75968 29.5042L2.49568 26.2402L15.2125 10.0546L21.9453 16.7874L5.75968 29.5042ZM23.1869 16.2114L15.7885 8.81298C15.8302 7.64889 16.1558 6.51265 16.7369 5.5031C17.318 4.49355 18.1369 3.64128 19.1225 3.02045C20.1081 2.39961 21.2305 2.02902 22.392 1.94092C23.5535 1.85282 24.7189 2.04987 25.7869 2.51493C26.8548 2.98 27.793 3.69898 28.5197 4.60933C29.2464 5.51968 29.7396 6.59382 29.9565 7.73829C30.1734 8.88275 30.1073 10.0629 29.764 11.176C29.4207 12.2891 28.8107 13.3014 27.9869 14.125C26.7145 15.4115 24.9956 16.1586 23.1869 16.2114Z" fill="#522008"/>
<path d="M13.2675 17.8302L11.2515 19.8398C11.1323 19.9597 11.0654 20.1219 11.0654 20.291C11.0654 20.4601 11.1323 20.6223 11.2515 20.7422C11.3113 20.8015 11.3823 20.8484 11.4602 20.8803C11.5382 20.9121 11.6217 20.9283 11.7059 20.9278C11.8738 20.9271 12.0347 20.8604 12.1539 20.7422L14.1699 18.7262C14.2369 18.6688 14.2913 18.5982 14.3298 18.5188C14.3682 18.4394 14.3898 18.3529 14.3932 18.2648C14.3966 18.1767 14.3817 18.0888 14.3495 18.0066C14.3174 17.9245 14.2686 17.8499 14.2062 17.7875C14.1438 17.7252 14.0692 17.6764 13.9871 17.6442C13.905 17.612 13.8171 17.5972 13.7289 17.6006C13.6408 17.604 13.5543 17.6256 13.4749 17.664C13.3955 17.7024 13.3249 17.7568 13.2675 17.8238V17.8302Z" fill="#522008"/>
</g>
<defs>
<clipPath id="clip0_366_1713">
<rect width="32" height="32" fill="white"/>
</clipPath>
</defs>
</svg>
