<svg width="32" height="32" viewBox="0 0 32 32" fill="none" xmlns="http://www.w3.org/2000/svg">
<path fill-rule="evenodd" clip-rule="evenodd" d="M14.9954 23.2847C15.2408 23.2847 15.4398 23.4837 15.4398 23.7291V24.9752C18.1232 25.0854 21.1984 26.1442 22.4555 26.683C22.6811 26.7796 22.7856 27.0409 22.6889 27.2666C22.5922 27.4922 22.331 27.5967 22.1053 27.5C20.8172 26.9479 17.5955 25.8547 14.9954 25.8547C12.4022 25.8547 9.55936 26.944 8.46948 27.489C8.24994 27.5988 7.98296 27.5098 7.87319 27.2902C7.76342 27.0707 7.85239 26.8037 8.07194 26.6939C9.16256 26.1486 11.8975 25.0864 14.5509 24.9753V23.7291C14.5509 23.4837 14.7499 23.2847 14.9954 23.2847Z" fill="#522008"/>
<path fill-rule="evenodd" clip-rule="evenodd" d="M26.6671 6.68573H4.44477C3.95386 6.68573 3.55588 7.08373 3.55588 7.57465V21.9515C3.55588 22.4424 3.95385 22.8404 4.44478 22.8404H26.6671C27.158 22.8404 27.556 22.4424 27.556 21.9515V7.57465C27.556 7.08373 27.158 6.68573 26.6671 6.68573ZM4.44477 5.79688C3.46293 5.79688 2.66699 6.59282 2.66699 7.57465V21.9515C2.66699 22.9333 3.46294 23.7293 4.44478 23.7293H26.6671C27.6489 23.7293 28.4448 22.9333 28.4448 21.9515V7.57465C28.4448 6.59282 27.6489 5.79688 26.6671 5.79688H4.44477Z" fill="#522008"/>
</svg>
