<svg width="32" height="32" viewBox="0 0 32 32" fill="none" xmlns="http://www.w3.org/2000/svg">
<g clip-path="url(#clip0_290_1310)">
<mask id="mask0_290_1310" style="mask-type:luminance" maskUnits="userSpaceOnUse" x="0" y="0" width="32" height="32">
<path d="M32 0H0V32H32V0Z" fill="white"/>
</mask>
<g mask="url(#mask0_290_1310)">
<path d="M9.48668 0C5.36065 0 2.00391 3.35675 2.00391 7.48282V12.9914C2.00391 14.0322 2.14278 15.0689 2.41659 16.0728L3.12734 18.6789C3.37922 19.6025 3.50696 20.5562 3.50696 21.5136V26.3495C3.50696 29.3256 5.75378 31.8024 8.62204 31.9882C8.74556 31.9962 8.86828 32.0002 8.99068 32.0002C10.3884 32.0002 11.7052 31.4815 12.732 30.5191C13.8332 29.487 14.4647 28.0298 14.4647 26.5211V4.97782C14.4645 2.23306 12.2315 0 9.48668 0ZM13.527 26.521C13.527 27.7899 13.0169 28.9669 12.0907 29.835C11.1652 30.7026 9.95532 31.1349 8.68244 31.0525C6.30596 30.8986 4.44434 28.8327 4.44434 26.3494V21.5134C4.44434 20.4727 4.30553 19.4361 4.03171 18.4321L3.42384 16.2031C4.12715 15.8576 5.38715 15.3432 7.03827 15.1007C9.20564 14.7822 11.3874 15.0214 13.527 15.8077V26.521ZM13.527 12.708C13.2188 12.6159 12.9092 12.5318 12.601 12.4587C12.3492 12.399 12.0965 12.5547 12.0368 12.8066C11.977 13.0585 12.1328 13.3111 12.3847 13.3709C12.765 13.4611 13.148 13.5683 13.527 13.6887V14.8117C11.3427 14.063 9.11668 13.8479 6.90209 14.1733C5.26084 14.4143 3.97391 14.9082 3.18803 15.2767C3.11009 14.9176 3.05047 14.555 3.00959 14.1899C4.45784 13.5547 7.12309 12.6974 10.4404 13.0403C10.6976 13.0668 10.9281 12.8798 10.9548 12.6222C10.9814 12.3647 10.7942 12.1344 10.5367 12.1078C7.23715 11.7667 4.5414 12.5438 2.94478 13.1992C2.94347 13.1299 2.94134 13.0607 2.94134 12.9914V7.48275C2.9414 3.87369 5.87759 0.937504 9.48668 0.937504C11.7146 0.937504 13.527 2.75 13.527 4.97782V12.708Z" fill="#522008"/>
<path d="M22.5129 0C19.7681 0 17.5352 2.23306 17.5352 4.97782V26.521C17.5352 28.0297 18.1666 29.487 19.2678 30.519C20.2946 31.4814 21.6113 32 23.0092 32C23.1315 32 23.2544 31.9961 23.3777 31.9881C26.246 31.8023 28.4927 29.3255 28.4927 26.3494V21.5134C28.4927 20.5561 28.6204 19.6023 28.8724 18.6787L29.5831 16.0726C29.8569 15.0687 29.9957 14.032 29.9957 12.9913V7.48269C29.9957 3.35675 26.6389 0 22.5129 0ZM27.9679 18.4322C27.694 19.4361 27.5552 20.4728 27.5552 21.5135V26.3494C27.5552 28.8328 25.6936 30.8987 23.3172 31.0526C22.0448 31.1353 20.8344 30.7026 19.9089 29.8351C18.9826 28.967 18.4726 27.79 18.4726 26.5211V15.8062C23.2156 14.0629 27.0082 15.4312 28.5757 16.2031L27.9679 18.4322ZM29.0583 12.9914C29.0583 13.061 29.0561 13.1304 29.0548 13.1998C28.769 13.0823 28.4764 12.9712 28.178 12.8694C27.9328 12.7858 27.6665 12.9166 27.5829 13.1617C27.4994 13.4067 27.6302 13.6731 27.8752 13.7567C28.2584 13.8874 28.6317 14.033 28.99 14.1904C28.9491 14.5551 28.8896 14.9176 28.8116 15.2764C27.0659 14.4546 23.2292 13.1809 18.4726 14.8117V13.6878C20.9387 12.9038 23.4464 12.7523 25.93 13.2378C26.1837 13.2874 26.4304 13.1218 26.48 12.8678C26.5296 12.6137 26.364 12.3674 26.1099 12.3178C23.565 11.8202 20.9985 11.9515 18.4726 12.707V4.97782C18.4726 2.75 20.2851 0.937504 22.5129 0.937504C26.122 0.937504 29.0583 3.87369 29.0583 7.48282V12.9914Z" fill="#522008"/>
</g>
</g>
<defs>
<clipPath id="clip0_290_1310">
<rect width="32" height="32" fill="white"/>
</clipPath>
</defs>
</svg>
