<svg width="32" height="32" viewBox="0 0 32 32" fill="none" xmlns="http://www.w3.org/2000/svg">
<path fill-rule="evenodd" clip-rule="evenodd" d="M10.4614 3.11057C7.76131 3.11057 5.57248 5.2994 5.57248 7.99946V29.7773C5.57248 30.0227 5.3735 30.2216 5.12804 30.2216C4.88258 30.2216 4.68359 30.0227 4.68359 29.7773V7.99946C4.68359 4.80848 7.27039 2.22168 10.4614 2.22168H14.6717C16.8694 2.22168 18.6509 4.00321 18.6509 6.20082H17.7619C17.7619 4.49413 16.3784 3.11057 14.6717 3.11057H10.4614Z" fill="#522008"/>
<path fill-rule="evenodd" clip-rule="evenodd" d="M11.4885 13.7151C11.4905 13.7152 11.4926 13.7152 11.4946 13.7151H24.9196C24.9216 13.7152 24.9236 13.7152 24.9257 13.7151H25.0945C25.34 13.7151 25.539 13.9141 25.539 14.1596V15.2096C25.539 15.455 25.34 15.654 25.0945 15.654H11.3196C11.0742 15.654 10.8752 15.455 10.8752 15.2096V14.1596C10.8752 13.9141 11.0742 13.7151 11.3196 13.7151H11.4885ZM25.336 12.848C25.9571 12.9616 26.4278 13.5056 26.4278 14.1596V15.2096C26.4278 15.9459 25.8309 16.5428 25.0945 16.5428H11.3196C10.5833 16.5428 9.98633 15.9459 9.98633 15.2096V14.1596C9.98633 13.5056 10.457 12.9616 11.0782 12.848C11.2034 11.6302 11.6453 9.99452 12.6201 8.59788C13.7204 7.0216 15.4989 5.75684 18.207 5.75684C20.9153 5.75684 22.6938 7.0216 23.794 8.59788C24.7689 9.99452 25.2107 11.6303 25.336 12.848ZM24.4394 12.8262C24.3113 11.7409 23.9075 10.3136 23.0651 9.10668C22.1094 7.73743 20.5888 6.64572 18.207 6.64572C15.8254 6.64572 14.3047 7.73743 13.349 9.10668C12.5066 10.3136 12.1028 11.7409 11.9748 12.8262H24.4394Z" fill="#522008"/>
<path fill-rule="evenodd" clip-rule="evenodd" d="M12.5509 17.4209C12.7964 17.4209 12.9953 17.6199 12.9953 17.8653V21.0466C12.9953 21.292 12.7964 21.491 12.5509 21.491C12.3055 21.491 12.1064 21.292 12.1064 21.0466V17.8653C12.1064 17.6199 12.3055 17.4209 12.5509 17.4209ZM12.5509 21.6625C12.7964 21.6625 12.9953 21.8615 12.9953 22.107V23.1674C12.9953 23.4128 12.7964 23.6118 12.5509 23.6118C12.3055 23.6118 12.1064 23.4128 12.1064 23.1674V22.107C12.1064 21.8615 12.3055 21.6625 12.5509 21.6625Z" fill="#522008"/>
<path fill-rule="evenodd" clip-rule="evenodd" d="M23.5089 17.4209C23.7544 17.4209 23.9533 17.6199 23.9533 17.8653V21.0466C23.9533 21.292 23.7544 21.491 23.5089 21.491C23.2635 21.491 23.0645 21.292 23.0645 21.0466V17.8653C23.0645 17.6199 23.2635 17.4209 23.5089 17.4209ZM23.5089 21.6625C23.7544 21.6625 23.9533 21.8615 23.9533 22.107V23.1674C23.9533 23.4128 23.7544 23.6118 23.5089 23.6118C23.2635 23.6118 23.0645 23.4128 23.0645 23.1674V22.107C23.0645 21.8615 23.2635 21.6625 23.5089 21.6625Z" fill="#522008"/>
<path fill-rule="evenodd" clip-rule="evenodd" d="M15.7326 17.4209C15.978 17.4209 16.177 17.6199 16.177 17.8653V22.8139C16.177 23.0594 15.978 23.2583 15.7326 23.2583C15.4871 23.2583 15.2881 23.0594 15.2881 22.8139V17.8653C15.2881 17.6199 15.4871 17.4209 15.7326 17.4209Z" fill="#522008"/>
<path fill-rule="evenodd" clip-rule="evenodd" d="M20.6807 17.4209C20.9262 17.4209 21.1252 17.6199 21.1252 17.8653V22.8139C21.1252 23.0594 20.9262 23.2583 20.6807 23.2583C20.4353 23.2583 20.2363 23.0594 20.2363 22.8139V17.8653C20.2363 17.6199 20.4353 17.4209 20.6807 17.4209Z" fill="#522008"/>
<path fill-rule="evenodd" clip-rule="evenodd" d="M17.8537 17.4209C18.0991 17.4209 18.2981 17.6199 18.2981 17.8653V20.6931C18.2981 20.9385 18.0991 21.1375 17.8537 21.1375C17.6081 21.1375 17.4092 20.9385 17.4092 20.6931V17.8653C17.4092 17.6199 17.6081 17.4209 17.8537 17.4209Z" fill="#522008"/>
</svg>
