<svg width="32" height="32" viewBox="0 0 32 32" fill="none" xmlns="http://www.w3.org/2000/svg">
<path fill-rule="evenodd" clip-rule="evenodd" d="M11.1108 4.44455C10.3744 4.44455 9.77746 5.0415 9.77746 5.77791V28.0001H22.6663V5.77791C22.6663 5.0415 22.0694 4.44455 21.333 4.44455H11.1108ZM23.5552 28.0001V5.77791C23.5552 4.55058 22.5603 3.55566 21.333 3.55566H11.1108C9.88346 3.55566 8.88855 4.55058 8.88855 5.77791V28.0001H5.77746C5.53199 28.0001 5.33301 28.1991 5.33301 28.4445C5.33301 28.69 5.53199 28.889 5.77746 28.889H27.1108C27.3563 28.889 27.5552 28.69 27.5552 28.4445C27.5552 28.1991 27.3563 28.0001 27.1108 28.0001H23.5552Z" fill="#522008"/>
<path fill-rule="evenodd" clip-rule="evenodd" d="M10.667 15.111C10.667 14.8655 10.866 14.6665 11.1114 14.6665H23.1114C23.3569 14.6665 23.5558 14.8655 23.5558 15.111C23.5558 15.3564 23.3569 15.5554 23.1114 15.5554H11.1114C10.866 15.5554 10.667 15.3564 10.667 15.111Z" fill="#522008"/>
<path fill-rule="evenodd" clip-rule="evenodd" d="M15.5554 14.6665C15.8009 14.6665 15.9998 14.8655 15.9998 15.111C15.9998 15.818 15.6441 16.3407 15.1267 16.6966C14.6279 17.0398 13.9708 17.2374 13.2947 17.3494C11.9369 17.5744 10.3317 17.4803 9.27029 17.3287C9.02732 17.294 8.85846 17.0689 8.8932 16.8259C8.92789 16.5829 9.15303 16.414 9.396 16.4488C10.4087 16.5935 11.9147 16.6771 13.1494 16.4725C13.7696 16.3697 14.2791 16.2007 14.6229 15.9643C14.9482 15.7405 15.111 15.4706 15.111 15.111C15.111 14.8655 15.3099 14.6665 15.5554 14.6665Z" fill="#522008"/>
<path fill-rule="evenodd" clip-rule="evenodd" d="M11.5558 7.55566C11.8013 7.55566 12.0002 7.75464 12.0002 8.00006V10.6667C12.0002 10.9122 11.8013 11.1112 11.5558 11.1112C11.3104 11.1112 11.1113 10.9122 11.1113 10.6667V8.00006C11.1113 7.75464 11.3104 7.55566 11.5558 7.55566Z" fill="#522008"/>
</svg>
