<svg width="32" height="32" viewBox="0 0 32 32" fill="none" xmlns="http://www.w3.org/2000/svg">
<path d="M30 13H28.31C27.7401 11.8083 26.8447 10.8023 25.7273 10.098C24.6098 9.39374 23.3159 9.02002 21.995 9.02002C20.6741 9.02002 19.3802 9.39374 18.2627 10.098C17.1453 10.8023 16.2499 11.8083 15.68 13H2C1.46957 13 0.960859 13.2107 0.585786 13.5857C0.210714 13.9608 0 14.4695 0 15L0 24C0 24.5304 0.210714 25.0391 0.585786 25.4142C0.960859 25.7892 1.46957 26 2 26H30C30.5304 26 31.0391 25.7892 31.4142 25.4142C31.7893 25.0391 32 24.5304 32 24V15C32 14.4695 31.7893 13.9608 31.4142 13.5857C31.0391 13.2107 30.5304 13 30 13ZM22 9.99996C23.1867 9.99996 24.3467 10.3519 25.3334 11.0111C26.3201 11.6704 27.0892 12.6075 27.5433 13.7039C27.9974 14.8002 28.1162 16.0066 27.8847 17.1705C27.6532 18.3344 27.0818 19.4035 26.2426 20.2426C25.4035 21.0817 24.3344 21.6532 23.1705 21.8847C22.0067 22.1162 20.8003 21.9974 19.7039 21.5432C18.6075 21.0891 17.6705 20.3201 17.0112 19.3334C16.3519 18.3467 16 17.1866 16 16C16 14.4087 16.6321 12.8825 17.7574 11.7573C18.8826 10.6321 20.4087 9.99996 22 9.99996ZM31 24C31 24.2652 30.8946 24.5195 30.7071 24.7071C30.5196 24.8946 30.2652 25 30 25H2C1.73478 25 1.48043 24.8946 1.29289 24.7071C1.10536 24.5195 1 24.2652 1 24V15C1 14.7347 1.10536 14.4804 1.29289 14.2929C1.48043 14.1053 1.73478 14 2 14H15.29C14.9766 15.0452 14.9118 16.1492 15.1009 17.2238C15.29 18.2985 15.7278 19.3141 16.3792 20.1895C17.0306 21.0649 17.8776 21.7759 18.8527 22.2657C19.8277 22.7556 20.9038 23.0107 21.995 23.0107C23.0862 23.0107 24.1623 22.7556 25.1373 22.2657C26.1124 21.7759 26.9594 21.0649 27.6108 20.1895C28.2622 19.3141 28.7 18.2985 28.8891 17.2238C29.0782 16.1492 29.0134 15.0452 28.7 14H30C30.2652 14 30.5196 14.1053 30.7071 14.2929C30.8946 14.4804 31 14.7347 31 15V24Z" fill="#522008"/>
<path d="M8 16H3V17H8V16Z" fill="#522008"/>
<path d="M8 19H3V20H8V19Z" fill="#522008"/>
<path d="M8 22H3V23H8V22Z" fill="#522008"/>
<path d="M22 20C21.2089 20 20.4355 19.7654 19.7777 19.3259C19.1199 18.8864 18.6072 18.2616 18.3045 17.5307C18.0017 16.7998 17.9225 15.9956 18.0769 15.2196C18.2312 14.4437 18.6122 13.731 19.1716 13.1716C19.731 12.6122 20.4437 12.2312 21.2196 12.0769C21.9956 11.9225 22.7998 12.0017 23.5307 12.3045C24.2616 12.6072 24.8864 13.1199 25.3259 13.7777C25.7654 14.4355 26 15.2089 26 16C26 17.0609 25.5786 18.0783 24.8284 18.8284C24.0783 19.5786 23.0609 20 22 20ZM22 13C21.4067 13 20.8266 13.1759 20.3333 13.5056C19.8399 13.8352 19.4554 14.3038 19.2284 14.852C19.0013 15.4001 18.9419 16.0033 19.0576 16.5853C19.1734 17.1672 19.4591 17.7018 19.8787 18.1213C20.2982 18.5409 20.8328 18.8266 21.4147 18.9424C21.9967 19.0581 22.5999 18.9987 23.1481 18.7716C23.6962 18.5446 24.1648 18.1601 24.4944 17.6667C24.8241 17.1734 25 16.5933 25 16C25 15.2044 24.6839 14.4413 24.1213 13.8787C23.5587 13.3161 22.7957 13 22 13Z" fill="#522008"/>
</svg>
