<svg width="32" height="32" viewBox="0 0 32 32" fill="none" xmlns="http://www.w3.org/2000/svg">
<path d="M28.2395 7.99993V4.11148C28.2395 3.8565 28.0164 3.63339 27.7614 3.63339H16.0961V1.3067C16.0961 1.05172 15.8729 0.828613 15.618 0.828613C15.363 0.828613 15.1399 1.05172 15.1399 1.3067V3.63339H3.50641C3.25143 3.63339 3.02832 3.8565 3.02832 4.11148V7.99993C3.02832 8.12742 3.02832 8.41427 3.02832 8.63738V20.0796C3.02832 20.3346 3.25143 20.5577 3.50641 20.5577H10.9008L8.44665 30.8525C8.3829 31.1075 8.54226 31.3625 8.79725 31.4262C8.82912 31.4262 8.86099 31.4262 8.92474 31.4262C9.14784 31.4262 9.33908 31.2669 9.40282 31.0756L11.9208 20.5577H15.2036V28.2708C15.2036 28.5258 15.4267 28.7489 15.6817 28.7489C15.9367 28.7489 16.1598 28.5258 16.1598 28.2708V20.5577H19.347L21.9606 31.0756C22.0243 31.2987 22.2156 31.4262 22.4387 31.4262C22.4706 31.4262 22.5024 31.4262 22.5662 31.4262C22.8211 31.3625 22.9805 31.1075 22.9168 30.8525L20.367 20.5577H27.8251C28.0801 20.5577 28.3032 20.3346 28.3032 20.0796C28.3032 20.0796 28.2395 8.15929 28.2395 7.99993ZM27.2833 4.58957V7.84057H3.9845V4.58957H27.2833ZM3.9845 19.6015V8.79674H27.2833V19.6015H3.9845Z" fill="#522008"/>
</svg>
