<svg width="32" height="32" viewBox="0 0 32 32" fill="none" xmlns="http://www.w3.org/2000/svg">
<path fill-rule="evenodd" clip-rule="evenodd" d="M6.20129 15.376C6.44672 15.376 6.64575 15.5749 6.64575 15.8204V24.2997C6.64575 25.9885 8.01478 27.3576 9.70358 27.3576C11.3924 27.3576 12.7615 25.9885 12.7615 24.2997V15.8204C12.7615 15.5749 12.9604 15.376 13.2059 15.376C13.4514 15.376 13.6504 15.5749 13.6504 15.8204V24.2997C13.6504 26.4795 11.8834 28.2465 9.70358 28.2465C7.52386 28.2465 5.75684 26.4795 5.75684 24.2997V15.8204C5.75684 15.5749 5.95581 15.376 6.20129 15.376Z" fill="#522008"/>
<path fill-rule="evenodd" clip-rule="evenodd" d="M25.3722 3.20947C25.6177 3.20947 25.8166 3.40846 25.8166 3.65392V14.7139C25.8166 14.9594 25.6177 15.1583 25.3722 15.1583C25.1268 15.1583 24.9277 14.9594 24.9277 14.7139V3.65392C24.9277 3.40846 25.1268 3.20947 25.3722 3.20947Z" fill="#522008"/>
<path fill-rule="evenodd" clip-rule="evenodd" d="M9.7922 2.28603C5.76357 1.80896 2.22189 4.95598 2.22189 9.01278C2.22189 12.9991 5.64732 16.1235 9.61689 15.7579L29.3516 13.9403V4.60227L9.7922 2.28603ZM1.33301 9.01278C1.33301 4.42362 5.33945 0.863633 9.89672 1.40331L30.2404 3.81244V14.7511L9.69843 16.6431C5.20794 17.0567 1.33301 13.5222 1.33301 9.01278Z" fill="#522008"/>
<path fill-rule="evenodd" clip-rule="evenodd" d="M9.8878 11.7969C11.4329 11.7969 12.6856 10.5443 12.6856 8.99914C12.6856 7.454 11.4329 6.20137 9.8878 6.20137C8.34266 6.20137 7.09003 7.454 7.09003 8.99914C7.09003 10.5443 8.34266 11.7969 9.8878 11.7969ZM9.8878 12.6858C11.9239 12.6858 13.5744 11.0353 13.5744 8.99914C13.5744 6.96308 11.9239 5.3125 9.8878 5.3125C7.85174 5.3125 6.20117 6.96308 6.20117 8.99914C6.20117 11.0353 7.85174 12.6858 9.8878 12.6858Z" fill="#522008"/>
<path fill-rule="evenodd" clip-rule="evenodd" d="M9.70422 27.3579C9.94965 27.3579 10.1486 27.5569 10.1486 27.8024V31.3047C10.1486 31.5501 9.94965 31.7491 9.70422 31.7491C9.45874 31.7491 9.25977 31.5501 9.25977 31.3047V27.8024C9.25977 27.5569 9.45874 27.3579 9.70422 27.3579Z" fill="#522008"/>
</svg>
