<svg width="32" height="32" viewBox="0 0 32 32" fill="none" xmlns="http://www.w3.org/2000/svg">
<path fill-rule="evenodd" clip-rule="evenodd" d="M13.0578 11.2954C13.3032 11.2954 13.5022 11.4945 13.5022 11.7399V15.0502C13.5022 15.2957 13.3032 15.4947 13.0578 15.4947C12.8122 15.4947 12.6133 15.2957 12.6133 15.0502V11.7399C12.6133 11.4945 12.8122 11.2954 13.0578 11.2954Z" fill="#522008"/>
<path fill-rule="evenodd" clip-rule="evenodd" d="M19.6778 11.2954C19.9233 11.2954 20.1223 11.4945 20.1223 11.7399V15.0502C20.1223 15.2957 19.9233 15.4947 19.6778 15.4947C19.4324 15.4947 19.2334 15.2957 19.2334 15.0502V11.7399C19.2334 11.4945 19.4324 11.2954 19.6778 11.2954Z" fill="#522008"/>
<path fill-rule="evenodd" clip-rule="evenodd" d="M4.88867 3.73904C4.88867 2.02082 6.28156 0.62793 7.99977 0.62793H23.9998C25.718 0.62793 27.1109 2.02082 27.1109 3.73904V25.6241C27.1109 27.3423 25.718 28.7352 23.9998 28.7352H7.99977C6.28156 28.7352 4.88867 27.3423 4.88867 25.6241V3.73904ZM7.99977 1.51682C6.77248 1.51682 5.77756 2.51174 5.77756 3.73904V25.6241C5.77756 26.8514 6.77248 27.8463 7.99977 27.8463H23.9998C25.227 27.8463 26.222 26.8514 26.222 25.6241V3.73904C26.222 2.51174 25.227 1.51682 23.9998 1.51682H7.99977Z" fill="#522008"/>
<path fill-rule="evenodd" clip-rule="evenodd" d="M7.90831 27.9688C8.15378 27.9688 8.35274 28.1678 8.35274 28.4132V30.4208H10.4064V28.4132C10.4064 28.1678 10.6054 27.9688 10.8508 27.9688C11.0963 27.9688 11.2953 28.1678 11.2953 28.4132V31.3096H7.46387V28.4132C7.46387 28.1678 7.66285 27.9688 7.90831 27.9688Z" fill="#522008"/>
<path fill-rule="evenodd" clip-rule="evenodd" d="M21.8859 27.9688C22.1313 27.9688 22.3303 28.1678 22.3303 28.4132V30.4208H24.384V28.4132C24.384 28.1678 24.5829 27.9688 24.8284 27.9688C25.0738 27.9688 25.2728 28.1678 25.2728 28.4132V31.3096H21.4414V28.4132C21.4414 28.1678 21.6404 27.9688 21.8859 27.9688Z" fill="#522008"/>
<path fill-rule="evenodd" clip-rule="evenodd" d="M16.3676 0.62793C16.613 0.62793 16.812 0.826917 16.812 1.07237V24.536H26.6665C26.9119 24.536 27.1109 24.7349 27.1109 24.9804C27.1109 25.2259 26.9119 25.4248 26.6665 25.4248H5.33311C5.08766 25.4248 4.88867 25.2259 4.88867 24.9804C4.88867 24.7349 5.08766 24.536 5.33311 24.536H15.9231V1.07237C15.9231 0.826917 16.1222 0.62793 16.3676 0.62793Z" fill="#522008"/>
</svg>
