<svg width="32" height="32" viewBox="0 0 32 32" fill="none" xmlns="http://www.w3.org/2000/svg">
<path fill-rule="evenodd" clip-rule="evenodd" d="M7.3782 9.15023C4.93697 10.5378 3.07168 12.2008 2.11125 13.2933C1.94919 13.4777 1.66836 13.4957 1.48401 13.3337C1.29966 13.1716 1.2816 12.8907 1.44366 12.7064C2.46934 11.5397 4.4118 9.81389 6.93895 8.37749C9.46706 6.94052 12.6075 5.77783 16.0216 5.77783C24.4966 5.77783 28.9528 10.4123 31.1427 12.6897L31.1447 12.6918C31.3148 12.8687 31.3093 13.1501 31.1324 13.3202C30.9555 13.4903 30.6741 13.4849 30.504 13.3079C28.3484 11.0662 24.1156 6.66669 16.0216 6.66669C12.807 6.66669 9.81849 7.7632 7.3782 9.15023Z" fill="#522008"/>
<path fill-rule="evenodd" clip-rule="evenodd" d="M9.84261 13.6118C8.06507 14.7928 6.70524 16.2096 6.0057 17.1396C5.85815 17.3358 5.57954 17.3752 5.38337 17.2277C5.18721 17.0801 5.14779 16.8015 5.29534 16.6053C6.05227 15.5989 7.48484 14.1111 9.35073 12.8714C11.2162 11.6321 13.5487 10.6187 16.0962 10.6187C22.3824 10.6187 25.6851 14.6333 27.2866 16.5802L27.2948 16.5901C27.4507 16.7797 27.4235 17.0597 27.2339 17.2157C27.0444 17.3716 26.7643 17.3444 26.6083 17.1548C25.0208 15.225 21.9519 11.5076 16.0962 11.5076C13.7827 11.5076 11.6207 12.4305 9.84261 13.6118Z" fill="#522008"/>
<path fill-rule="evenodd" clip-rule="evenodd" d="M12.4553 18.6982C11.2573 19.4764 10.3421 20.4097 9.87488 21.0171C9.72522 21.2116 9.4462 21.248 9.25162 21.0984C9.05705 20.9487 9.02065 20.6696 9.17031 20.4751C9.6962 19.7915 10.6849 18.7883 11.9711 17.9528C13.257 17.1175 14.8732 16.4287 16.6447 16.4287C20.9945 16.4287 23.2829 19.1487 24.3791 20.4515L24.3861 20.4599C24.5441 20.6477 24.52 20.9281 24.3322 21.0861C24.1444 21.2442 23.864 21.22 23.706 21.0322C22.6271 19.7498 20.5713 17.3176 16.6447 17.3176C15.1019 17.3176 13.6535 17.9199 12.4553 18.6982Z" fill="#522008"/>
<path fill-rule="evenodd" clip-rule="evenodd" d="M16.7848 25.6666C17.6308 25.6666 18.3165 24.9809 18.3165 24.1349C18.3165 23.289 17.6308 22.6033 16.7848 22.6033C15.9389 22.6033 15.2532 23.289 15.2532 24.1349C15.2532 24.9809 15.9389 25.6666 16.7848 25.6666ZM16.7848 26.5555C18.1217 26.5555 19.2054 25.4718 19.2054 24.1349C19.2054 22.7981 18.1217 21.7144 16.7848 21.7144C15.448 21.7144 14.3643 22.7981 14.3643 24.1349C14.3643 25.4718 15.448 26.5555 16.7848 26.5555Z" fill="#522008"/>
</svg>
