<svg width="32" height="32" viewBox="0 0 32 32" fill="none" xmlns="http://www.w3.org/2000/svg">
<path d="M5.49512 4.8359C5.56349 4.83587 5.56349 4.83587 5.63325 4.83585C5.68598 4.83507 5.7387 4.8343 5.79303 4.8335C5.85096 4.83424 5.90889 4.83498 5.96858 4.83574C6.06089 4.83507 6.06089 4.83507 6.15506 4.83439C6.36222 4.83329 6.56931 4.83443 6.77647 4.83556C6.92459 4.83523 7.07271 4.83478 7.22083 4.8342C7.58195 4.83316 7.94305 4.83358 8.30417 4.83471C8.5976 4.83558 8.89102 4.83583 9.18444 4.83562C9.22617 4.83559 9.26789 4.83556 9.31088 4.83553C9.39564 4.83546 9.48039 4.8354 9.56515 4.83533C10.315 4.83479 11.0649 4.83584 11.8147 4.83769C12.5427 4.83949 13.2707 4.83994 13.9987 4.83897C14.791 4.83793 15.5833 4.83767 16.3756 4.83877C16.4601 4.83888 16.5445 4.839 16.629 4.83911C16.6705 4.83917 16.7121 4.83923 16.7549 4.83928C17.0481 4.83964 17.3412 4.83943 17.6344 4.83902C18.0288 4.83854 18.4231 4.83929 18.8175 4.84101C18.9626 4.84144 19.1076 4.84144 19.2527 4.84099C19.4501 4.84045 19.6474 4.84144 19.8448 4.84283C19.9028 4.84232 19.9607 4.8418 20.0204 4.84127C20.0995 4.84231 20.0995 4.84231 20.1802 4.84336C20.2258 4.84344 20.2713 4.84351 20.3183 4.84359C20.438 4.875 20.438 4.875 20.5464 4.97887C20.6458 5.1625 20.649 5.28615 20.6491 5.49474C20.6495 5.57085 20.65 5.64696 20.6505 5.72537C20.6501 5.80994 20.6497 5.89452 20.6493 5.97909C20.6495 6.06885 20.6498 6.1586 20.6502 6.24835C20.6509 6.49529 20.6506 6.74222 20.65 6.98916C20.6496 7.25535 20.6502 7.52155 20.6507 7.78774C20.6516 8.30933 20.6514 8.83092 20.6508 9.35251C20.6504 9.77632 20.6504 10.2001 20.6506 10.6239C20.6506 10.6842 20.6506 10.7445 20.6506 10.8065C20.6507 10.9289 20.6508 11.0513 20.6508 11.1738C20.6514 12.3222 20.6507 13.4707 20.6497 14.6192C20.6489 15.6052 20.649 16.5912 20.6499 17.5773C20.6509 18.7216 20.6513 19.8659 20.6507 21.0102C20.6507 21.1321 20.6506 21.2541 20.6506 21.3761C20.6505 21.4361 20.6505 21.4961 20.6505 21.5579C20.6503 21.9813 20.6506 22.4048 20.651 22.8282C20.6515 23.344 20.6514 23.8599 20.6504 24.3757C20.6499 24.639 20.6497 24.9023 20.6503 25.1656C20.6509 25.4065 20.6506 25.6474 20.6496 25.8882C20.6494 25.9756 20.6495 26.0629 20.6499 26.1502C20.6505 26.2685 20.6498 26.3869 20.6491 26.5053C20.649 26.604 20.649 26.604 20.649 26.7048C20.6218 26.9017 20.5811 26.9878 20.438 27.125C20.3183 27.1564 20.3183 27.1564 20.1802 27.1566C20.1011 27.1577 20.1011 27.1577 20.0204 27.1587C19.9335 27.158 19.9335 27.158 19.8448 27.1572C19.7833 27.1576 19.7218 27.158 19.6584 27.1585C19.4512 27.1596 19.2441 27.159 19.037 27.1583C18.8888 27.1588 18.7407 27.1593 18.5926 27.16C18.2315 27.1612 17.8704 27.1613 17.5093 27.1608C17.2158 27.1604 16.9224 27.1605 16.629 27.1609C16.5873 27.1609 16.5455 27.161 16.5025 27.1611C16.4178 27.1612 16.333 27.1613 16.2483 27.1614C15.4531 27.1624 14.6579 27.1619 13.8627 27.1608C13.1347 27.1599 12.4068 27.1608 11.6788 27.1626C10.9318 27.1645 10.1848 27.1652 9.43779 27.1646C9.35334 27.1645 9.26889 27.1644 9.18444 27.1644C9.12212 27.1643 9.12212 27.1643 9.05853 27.1643C8.76537 27.1642 8.47222 27.1648 8.17907 27.1657C7.78468 27.1668 7.39031 27.1665 6.99591 27.1649C6.85086 27.1646 6.70581 27.1648 6.56076 27.1656C6.36333 27.1666 6.166 27.1657 5.96858 27.1643C5.91065 27.165 5.85271 27.1657 5.79303 27.1665C5.7403 27.1657 5.68757 27.1649 5.63325 27.1642C5.58767 27.1641 5.54208 27.1641 5.49512 27.1641C5.37546 27.125 5.37546 27.125 5.26708 26.9898C5.17787 26.7899 5.16447 26.6555 5.16437 26.4372C5.16388 26.3614 5.16339 26.2857 5.16289 26.2076C5.16329 26.1238 5.16372 26.0399 5.16416 25.9561C5.16394 25.8668 5.16364 25.7776 5.16327 25.6883C5.16249 25.4431 5.16287 25.1978 5.16345 24.9526C5.16388 24.6881 5.16322 24.4236 5.16271 24.1591C5.16187 23.641 5.16205 23.1228 5.1626 22.6047C5.16302 22.1837 5.16308 21.7626 5.16287 21.3416C5.16285 21.2817 5.16282 21.2218 5.16279 21.1601C5.16273 21.0385 5.16267 20.9168 5.1626 20.7952C5.16207 19.654 5.16269 18.5129 5.16369 17.3717C5.16453 16.3922 5.16438 15.4126 5.16352 14.4331C5.16252 13.2961 5.16212 12.1591 5.1627 11.022C5.16276 10.9008 5.16282 10.7796 5.16287 10.6584C5.16292 10.569 5.16292 10.569 5.16296 10.4777C5.16312 10.0571 5.16285 9.63647 5.16241 9.21585C5.16188 8.70338 5.16202 8.19092 5.16302 7.67845C5.16352 7.41689 5.16371 7.15535 5.16309 6.89379C5.16253 6.65446 5.16284 6.41514 5.16384 6.17581C5.16405 6.08913 5.16394 6.00245 5.16348 5.91577C5.16292 5.79812 5.16361 5.68046 5.16437 5.5628C5.1644 5.4974 5.16443 5.432 5.16446 5.36461C5.19564 5.12968 5.25257 4.91516 5.49512 4.8359ZM5.75046 5.375C5.75046 8.79875 5.75046 12.2225 5.75046 15.75C6.47234 15.75 7.19421 15.75 7.93796 15.75C7.93506 15.4167 7.93216 15.0834 7.92918 14.74C7.9279 14.5284 7.92669 14.3167 7.92576 14.1051C7.92427 13.7695 7.9225 13.4338 7.9191 13.0982C7.91638 12.8275 7.91489 12.5568 7.91425 12.2861C7.91378 12.183 7.91289 12.0799 7.91153 11.9769C7.90971 11.832 7.90947 11.6873 7.90958 11.5425C7.90903 11.4602 7.90847 11.3779 7.9079 11.2931C7.94554 11.0044 8.0215 10.8629 8.18796 10.625C8.30466 10.5438 8.30466 10.5438 8.41625 10.5014C8.64399 10.3943 8.64399 10.3943 8.69808 10.1642C8.70842 10.0813 8.71658 9.99811 8.72288 9.91479C8.72781 9.87041 8.73274 9.82602 8.73782 9.78029C8.75305 9.6388 8.76543 9.49723 8.77781 9.35547C8.78768 9.26093 8.79773 9.1664 8.80796 9.0719C8.87456 8.47457 8.87456 8.47457 8.87546 7.875C8.72916 7.72772 8.72916 7.72772 8.56296 7.625C8.455 7.40907 8.47837 7.17403 8.50046 6.9375C8.57078 6.75391 8.57078 6.75391 8.68796 6.625C9.01726 6.47865 9.33055 6.47916 9.68406 6.48047C9.76545 6.47896 9.76545 6.47896 9.84849 6.47742C10.1966 6.47715 10.4445 6.51719 10.7505 6.6875C10.9264 6.95136 10.9259 7.19002 10.8755 7.5C10.7231 7.69141 10.7231 7.69141 10.563 7.8125C10.5423 7.83312 10.5217 7.85375 10.5005 7.875C10.5021 8.13378 10.5265 8.3912 10.5491 8.64886C10.5592 8.76749 10.5682 8.88619 10.5765 9.00494C10.5918 9.2145 10.6103 9.42357 10.6294 9.63281C10.6361 9.73505 10.6361 9.73505 10.643 9.83935C10.6687 10.1959 10.6687 10.1959 10.863 10.4775C10.9931 10.5561 10.9931 10.5561 11.127 10.6086C11.3114 10.7265 11.3552 10.8617 11.438 11.0625C11.4605 11.2856 11.4605 11.2856 11.4593 11.5354C11.4593 11.604 11.4593 11.604 11.4593 11.6741C11.4592 11.8242 11.4577 11.9744 11.4563 12.1245C11.4559 12.2291 11.4557 12.3336 11.4555 12.4382C11.4548 12.7125 11.4529 12.9869 11.4508 13.2612C11.4486 13.5908 11.4477 13.9204 11.4466 14.2501C11.4448 14.7501 11.4412 15.25 11.438 15.75C12.4073 15.75 13.3767 15.75 14.3755 15.75C14.3726 15.4167 14.3697 15.0834 14.3667 14.74C14.3654 14.5284 14.3642 14.3167 14.3633 14.1051C14.3618 13.7695 14.36 13.4338 14.3566 13.0982C14.3539 12.8275 14.3524 12.5568 14.3517 12.2861C14.3513 12.183 14.3504 12.0799 14.349 11.9769C14.3472 11.832 14.347 11.6873 14.3471 11.5425C14.3465 11.4602 14.346 11.3779 14.3454 11.2931C14.383 11.0046 14.4581 10.862 14.6255 10.625C14.6997 10.595 14.7739 10.5651 14.8503 10.5342C14.9708 10.4814 14.9708 10.4814 15.063 10.375C15.1583 10.0522 15.1851 9.72431 15.2153 9.39062C15.2252 9.29962 15.2352 9.20864 15.2455 9.11768C15.2902 8.70333 15.3345 8.2918 15.313 7.875C15.1684 7.69392 15.1684 7.69392 15.0005 7.5625C14.8834 7.32845 14.9124 7.04255 14.9731 6.79297C15.1444 6.59186 15.3906 6.51362 15.6464 6.48192C15.8065 6.47487 15.9652 6.47441 16.1255 6.47656C16.1794 6.47584 16.2334 6.47511 16.289 6.47436C16.635 6.47594 16.8838 6.5188 17.188 6.6875C17.3639 6.95136 17.3634 7.19002 17.313 7.5C17.1606 7.69141 17.1606 7.69141 17.0005 7.8125C16.9798 7.83312 16.9592 7.85375 16.938 7.875C16.9419 8.44295 17.0279 9.01487 17.0942 9.57812C17.1065 9.68308 17.1065 9.68308 17.1189 9.79016C17.1309 9.88871 17.1309 9.88871 17.143 9.98926C17.1502 10.0485 17.1573 10.1077 17.1646 10.1688C17.1808 10.3138 17.1808 10.3138 17.2505 10.4375C17.3085 10.4633 17.3665 10.4891 17.4262 10.5156C17.6683 10.6485 17.7439 10.7584 17.8755 11C17.8997 11.1682 17.9108 11.3109 17.9096 11.4786C17.9102 11.525 17.9109 11.5714 17.9115 11.6192C17.9134 11.7714 17.9135 11.9235 17.9136 12.0757C17.9145 12.1816 17.9155 12.2876 17.9167 12.3936C17.9194 12.6716 17.9207 12.9496 17.9216 13.2277C17.923 13.5617 17.9263 13.8958 17.9293 14.2298C17.9336 14.7366 17.9356 15.2432 17.938 15.75C18.6392 15.75 19.3405 15.75 20.063 15.75C20.063 12.3263 20.063 8.9025 20.063 5.375C15.3398 5.375 10.6167 5.375 5.75046 5.375ZM9.06296 7C9.03908 7.10351 9.01834 7.20779 9.00046 7.3125C9.06264 7.38853 9.06264 7.38853 9.18481 7.38209C9.26287 7.3816 9.26287 7.3816 9.34251 7.3811C9.4268 7.3808 9.4268 7.3808 9.51279 7.38049C9.60144 7.37971 9.60144 7.37971 9.69187 7.37891C9.75121 7.37862 9.81054 7.37834 9.87168 7.37805C10.0188 7.37731 10.1659 7.37628 10.313 7.375C10.3542 7.2925 10.3955 7.21 10.438 7.125C10.327 6.98794 10.327 6.98794 10.184 6.98581C10.1323 6.98646 10.0806 6.98712 10.0273 6.98779C9.97133 6.9882 9.91533 6.9886 9.85764 6.98901C9.76978 6.99058 9.76978 6.99058 9.68015 6.99219C9.6211 6.99275 9.56204 6.99331 9.5012 6.9939C9.3551 6.99537 9.20904 6.99743 9.06296 7ZM15.5005 7C15.4766 7.10351 15.4558 7.20779 15.438 7.3125C15.5001 7.38853 15.5001 7.38853 15.6223 7.38209C15.7004 7.3816 15.7004 7.3816 15.78 7.3811C15.8643 7.3808 15.8643 7.3808 15.9503 7.38049C16.0389 7.37971 16.0389 7.37971 16.1294 7.37891C16.1887 7.37862 16.248 7.37834 16.3092 7.37805C16.4563 7.37731 16.6034 7.37628 16.7505 7.375C16.7917 7.2925 16.833 7.21 16.8755 7.125C16.7645 6.98794 16.7645 6.98794 16.6215 6.98581C16.5698 6.98646 16.5181 6.98712 16.4648 6.98779C16.4088 6.9882 16.3528 6.9886 16.2951 6.98901C16.2073 6.99058 16.2073 6.99058 16.1177 6.99219C16.0586 6.99275 15.9995 6.99331 15.9387 6.9939C15.7926 6.99537 15.6465 6.99743 15.5005 7ZM9.43796 7.9375C9.29173 8.91445 9.17187 9.89322 9.06296 10.875C8.96048 10.8847 8.96048 10.8847 8.85593 10.8945C8.60965 10.918 8.60965 10.918 8.43796 11.125C8.43796 11.4344 8.43796 11.7437 8.43796 12.0625C9.28359 12.0625 10.1292 12.0625 11.0005 12.0625C11.0648 11.3589 11.0648 11.3589 10.813 11C10.691 10.9323 10.691 10.9323 10.5584 10.8925C10.4016 10.8204 10.3299 10.787 10.2573 10.6283C10.226 10.4709 10.2097 10.318 10.198 10.158C10.1919 10.1005 10.1858 10.043 10.1795 9.98382C10.1606 9.80055 10.1449 9.61717 10.1294 9.43359C10.1115 9.24992 10.093 9.06631 10.0745 8.8827C10.0632 8.76854 10.0525 8.65432 10.0424 8.54005C10.0354 8.46245 10.0354 8.46245 10.0283 8.38329C10.0244 8.33782 10.0205 8.29236 10.0165 8.24552C10.0025 8.11157 10.0025 8.11157 9.93796 7.9375C9.77296 7.9375 9.60796 7.9375 9.43796 7.9375ZM15.8755 7.9375C15.685 9.40587 15.685 9.40587 15.5005 10.875C15.4321 10.8802 15.3638 10.8853 15.2934 10.8906C15.0354 10.9165 15.0354 10.9165 14.8755 11.1875C14.8755 11.4762 14.8755 11.765 14.8755 12.0625C15.7211 12.0625 16.5667 12.0625 17.438 12.0625C17.5226 11.289 17.5226 11.289 17.188 10.9375C16.9929 10.8533 16.9929 10.8533 16.813 10.8125C16.6814 10.2456 16.6229 9.67121 16.5591 9.09375C16.5378 8.90166 16.5162 8.70961 16.4944 8.51758C16.4896 8.4737 16.4849 8.42983 16.48 8.38462C16.4554 8.15359 16.4554 8.15359 16.3755 7.9375C16.2105 7.9375 16.0455 7.9375 15.8755 7.9375ZM8.43796 12.5625C8.43796 13.0575 8.43796 13.5525 8.43796 14.0625C9.28359 14.0625 10.1292 14.0625 11.0005 14.0625C11.0005 13.5675 11.0005 13.0725 11.0005 12.5625C10.1548 12.5625 9.30921 12.5625 8.43796 12.5625ZM14.8755 12.5625C14.8755 13.0575 14.8755 13.5525 14.8755 14.0625C15.7211 14.0625 16.5667 14.0625 17.438 14.0625C17.438 13.5675 17.438 13.0725 17.438 12.5625C16.5923 12.5625 15.7467 12.5625 14.8755 12.5625ZM8.43796 14.5625C8.43796 14.8925 8.43796 15.2225 8.43796 15.5625C9.21395 15.8212 10.0807 15.8248 10.8755 15.625C11.0814 15.3537 11.0814 15.3537 11.0005 14.5625C10.1548 14.5625 9.30921 14.5625 8.43796 14.5625ZM14.8755 14.5625C14.8755 14.8925 14.8755 15.2225 14.8755 15.5625C15.6677 15.8266 16.4994 15.8021 17.313 15.625C17.3542 15.5837 17.3955 15.5425 17.438 15.5C17.438 15.1906 17.438 14.8813 17.438 14.5625C16.5923 14.5625 15.7467 14.5625 14.8755 14.5625ZM5.75046 16.25C5.75046 19.6737 5.75046 23.0975 5.75046 26.625C6.47234 26.625 7.19421 26.625 7.93796 26.625C7.93506 26.2917 7.93216 25.9584 7.92918 25.615C7.9279 25.4034 7.92669 25.1917 7.92576 24.9801C7.92427 24.6445 7.9225 24.3088 7.9191 23.9732C7.91638 23.7025 7.91489 23.4318 7.91425 23.1611C7.91378 23.058 7.91289 22.9549 7.91153 22.8519C7.90971 22.707 7.90947 22.5623 7.90958 22.4175C7.90903 22.3352 7.90847 22.2529 7.9079 22.1681C7.94554 21.8794 8.0215 21.7379 8.18796 21.5C8.30466 21.4188 8.30466 21.4188 8.41625 21.3764C8.64399 21.2693 8.64399 21.2693 8.69808 21.0392C8.70842 20.9563 8.71658 20.8731 8.72288 20.7898C8.72781 20.7454 8.73274 20.701 8.73782 20.6553C8.75305 20.5138 8.76543 20.3722 8.77781 20.2305C8.78768 20.1359 8.79773 20.0414 8.80796 19.9469C8.87456 19.3496 8.87456 19.3496 8.87546 18.75C8.72916 18.6027 8.72916 18.6027 8.56296 18.5C8.49028 18.3546 8.49009 18.2633 8.48875 18.1016C8.48786 18.0534 8.48697 18.0052 8.48606 17.9556C8.50227 17.7945 8.53838 17.6985 8.62546 17.5625C8.94111 17.3521 9.3094 17.4118 9.68015 17.4102C9.76015 17.4081 9.84016 17.406 9.92258 17.4039C10.579 17.4002 10.579 17.4002 10.7719 17.5759C10.9329 17.8465 10.9401 18.0697 10.8755 18.375C10.7231 18.5664 10.7231 18.5664 10.563 18.6875C10.5423 18.7081 10.5217 18.7288 10.5005 18.75C10.5021 19.0088 10.5265 19.2662 10.5491 19.5239C10.5592 19.6425 10.5682 19.7612 10.5765 19.8799C10.5918 20.0895 10.6103 20.2986 10.6294 20.5078C10.6361 20.6101 10.6361 20.6101 10.643 20.7144C10.6687 21.0709 10.6687 21.0709 10.863 21.3525C10.9931 21.4311 10.9931 21.4311 11.127 21.4836C11.3114 21.6015 11.3552 21.7367 11.438 21.9375C11.4605 22.1606 11.4605 22.1606 11.4593 22.4104C11.4593 22.479 11.4593 22.479 11.4593 22.5491C11.4592 22.6992 11.4577 22.8494 11.4563 22.9995C11.4559 23.1041 11.4557 23.2086 11.4555 23.3132C11.4548 23.5875 11.4529 23.8619 11.4508 24.1362C11.4486 24.4658 11.4477 24.7954 11.4466 25.1251C11.4448 25.6251 11.4412 26.125 11.438 26.625C12.4073 26.625 13.3767 26.625 14.3755 26.625C14.3726 26.2917 14.3697 25.9584 14.3667 25.615C14.3654 25.4034 14.3642 25.1917 14.3633 24.9801C14.3618 24.6445 14.36 24.3088 14.3566 23.9732C14.3539 23.7025 14.3524 23.4318 14.3517 23.1611C14.3513 23.058 14.3504 22.9549 14.349 22.8519C14.3472 22.707 14.347 22.5623 14.3471 22.4175C14.3465 22.3352 14.346 22.2529 14.3454 22.1681C14.383 21.8796 14.4581 21.737 14.6255 21.5C14.6997 21.47 14.7739 21.4401 14.8503 21.4092C14.9708 21.3564 14.9708 21.3564 15.063 21.25C15.1583 20.9272 15.1851 20.5993 15.2153 20.2656C15.2252 20.1746 15.2352 20.0836 15.2455 19.9927C15.2902 19.5783 15.3345 19.1668 15.313 18.75C15.1684 18.5689 15.1684 18.5689 15.0005 18.4375C14.9012 18.2389 14.9208 18.0291 14.938 17.8125C15.0111 17.5987 15.055 17.5678 15.2505 17.4375C15.5386 17.4063 15.8281 17.4115 16.1177 17.4102C16.1977 17.4081 16.2777 17.406 16.3601 17.4039C17.0165 17.4002 17.0165 17.4002 17.2094 17.5759C17.3704 17.8465 17.3776 18.0697 17.313 18.375C17.1606 18.5664 17.1606 18.5664 17.0005 18.6875C16.9798 18.7081 16.9592 18.7288 16.938 18.75C16.9419 19.318 17.0279 19.8899 17.0942 20.4531C17.1065 20.5581 17.1065 20.5581 17.1189 20.6652C17.1309 20.7637 17.1309 20.7637 17.143 20.8643C17.1502 20.9235 17.1573 20.9827 17.1646 21.0438C17.1808 21.1888 17.1808 21.1888 17.2505 21.3125C17.3085 21.3383 17.3665 21.3641 17.4262 21.3906C17.6683 21.5235 17.7439 21.6334 17.8755 21.875C17.8997 22.0432 17.9108 22.1859 17.9096 22.3536C17.9102 22.4 17.9109 22.4464 17.9115 22.4942C17.9134 22.6464 17.9135 22.7985 17.9136 22.9507C17.9145 23.0566 17.9155 23.1626 17.9167 23.2686C17.9194 23.5466 17.9207 23.8246 17.9216 24.1027C17.923 24.4367 17.9263 24.7708 17.9293 25.1048C17.9336 25.6116 17.9356 26.1182 17.938 26.625C18.6392 26.625 19.3405 26.625 20.063 26.625C20.063 23.2013 20.063 19.7775 20.063 16.25C15.3398 16.25 10.6167 16.25 5.75046 16.25ZM9.06296 17.875C9.02171 17.9575 8.98046 18.04 8.93796 18.125C9.04897 18.2621 9.04897 18.2621 9.1919 18.2642C9.24361 18.2635 9.29533 18.2629 9.34861 18.2622C9.4046 18.2618 9.4606 18.2614 9.51829 18.261C9.57686 18.2599 9.63543 18.2589 9.69578 18.2578C9.75483 18.2572 9.81389 18.2567 9.87473 18.2561C10.0208 18.2546 10.1669 18.2526 10.313 18.25C10.3542 18.1675 10.3955 18.085 10.438 18C10.327 17.8629 10.327 17.8629 10.184 17.8608C10.1323 17.8615 10.0806 17.8621 10.0273 17.8628C9.97133 17.8632 9.91533 17.8636 9.85764 17.864C9.76978 17.8656 9.76978 17.8656 9.68015 17.8672C9.6211 17.8678 9.56204 17.8683 9.5012 17.8689C9.3551 17.8704 9.20904 17.8724 9.06296 17.875ZM15.5005 17.875C15.4766 17.9785 15.4558 18.0828 15.438 18.1875C15.5001 18.2635 15.5001 18.2635 15.6223 18.2571C15.7004 18.2566 15.7004 18.2566 15.78 18.2561C15.8643 18.2558 15.8643 18.2558 15.9503 18.2555C16.0389 18.2547 16.0389 18.2547 16.1294 18.2539C16.1887 18.2536 16.248 18.2533 16.3092 18.2531C16.4563 18.2523 16.6034 18.2513 16.7505 18.25C16.7917 18.1675 16.833 18.085 16.8755 18C16.7645 17.8629 16.7645 17.8629 16.6215 17.8608C16.5698 17.8615 16.5181 17.8621 16.4648 17.8628C16.4088 17.8632 16.3528 17.8636 16.2951 17.864C16.2073 17.8656 16.2073 17.8656 16.1177 17.8672C16.0586 17.8678 15.9995 17.8683 15.9387 17.8689C15.7926 17.8704 15.6465 17.8724 15.5005 17.875ZM9.43796 18.8125C9.29173 19.7894 9.17187 20.7682 9.06296 21.75C8.96048 21.7597 8.96048 21.7597 8.85593 21.7695C8.60965 21.793 8.60965 21.793 8.43796 22C8.43796 22.3094 8.43796 22.6187 8.43796 22.9375C9.28359 22.9375 10.1292 22.9375 11.0005 22.9375C11.0648 22.2339 11.0648 22.2339 10.813 21.875C10.6292 21.7785 10.5212 21.75 10.313 21.75C10.2993 21.6298 10.2993 21.6298 10.2853 21.5073C10.2513 21.21 10.2171 20.9127 10.1829 20.6155C10.1681 20.4869 10.1534 20.3582 10.1387 20.2296C10.1176 20.0446 10.0963 19.8597 10.0749 19.6748C10.0684 19.6173 10.0619 19.5598 10.0552 19.5006C10.0458 19.4199 10.0458 19.4199 10.0362 19.3376C10.0308 19.2904 10.0254 19.2432 10.0198 19.1946C10.0007 19.0642 9.9722 18.9397 9.93796 18.8125C9.77296 18.8125 9.60796 18.8125 9.43796 18.8125ZM15.8755 18.8125C15.8685 18.8663 15.8616 18.9201 15.8545 18.9755C15.8282 19.1799 15.8019 19.3844 15.7755 19.5888C15.7642 19.6764 15.753 19.7639 15.7417 19.8515C15.7363 19.8935 15.7309 19.9356 15.7253 19.9789C15.7199 20.0211 15.7145 20.0632 15.7089 20.1067C15.6979 20.1922 15.6866 20.2776 15.6752 20.363C15.6462 20.5809 15.6202 20.7984 15.5993 21.0172C15.5948 21.06 15.5903 21.1029 15.5856 21.147C15.5732 21.265 15.5621 21.3832 15.551 21.5014C15.5005 21.6875 15.5005 21.6875 15.3629 21.7988C15.2153 21.8633 15.2153 21.8633 15.0627 21.9036C15.0216 21.9148 14.9804 21.926 14.938 21.9375C14.7886 22.2362 14.8755 22.6035 14.8755 22.9375C15.7211 22.9375 16.5667 22.9375 17.438 22.9375C17.5226 22.164 17.5226 22.164 17.188 21.8125C17.1235 21.797 17.0591 21.7816 16.9927 21.7656C16.9334 21.7398 16.8741 21.7141 16.813 21.6875C16.6529 21.1556 16.6198 20.5896 16.5591 20.0391C16.5429 19.8932 16.5266 19.7473 16.51 19.6015C16.4998 19.5113 16.4898 19.421 16.48 19.3308C16.4593 19.1483 16.4338 18.9874 16.3755 18.8125C16.2105 18.8125 16.0455 18.8125 15.8755 18.8125ZM8.43796 23.4375C8.43796 23.9325 8.43796 24.4275 8.43796 24.9375C9.28359 24.9375 10.1292 24.9375 11.0005 24.9375C11.0005 24.4425 11.0005 23.9475 11.0005 23.4375C10.1548 23.4375 9.30921 23.4375 8.43796 23.4375ZM14.8755 23.4375C14.8755 23.9325 14.8755 24.4275 14.8755 24.9375C15.7211 24.9375 16.5667 24.9375 17.438 24.9375C17.438 24.4425 17.438 23.9475 17.438 23.4375C16.5923 23.4375 15.7467 23.4375 14.8755 23.4375ZM8.43796 25.4375C8.43796 25.7675 8.43796 26.0975 8.43796 26.4375C9.17041 26.7305 10.1204 26.7107 10.8755 26.5C11.0814 26.2287 11.0814 26.2287 11.0005 25.4375C10.1548 25.4375 9.30921 25.4375 8.43796 25.4375ZM14.8755 25.4375C14.8755 25.7675 14.8755 26.0975 14.8755 26.4375C15.6247 26.7372 16.5375 26.6875 17.313 26.5C17.3542 26.4587 17.3955 26.4175 17.438 26.375C17.438 26.0656 17.438 25.7563 17.438 25.4375C16.5923 25.4375 15.7467 25.4375 14.8755 25.4375Z" fill="#522008"/>
<path d="M25.7817 2.84746C26.1192 3.05165 26.3951 3.36658 26.5005 3.74981C26.573 4.15045 26.5767 4.54824 26.5828 4.95464C26.5841 5.02755 26.5854 5.10045 26.5867 5.17557C26.5908 5.40734 26.5945 5.63912 26.5981 5.8709C26.6008 6.02849 26.6036 6.18609 26.6063 6.34368C26.613 6.72905 26.6194 7.11443 26.6255 7.49981C26.6758 7.52384 26.7261 7.54787 26.7779 7.57264C27.5321 7.93995 28.0465 8.37188 28.438 9.12481C28.4651 9.17613 28.4923 9.22745 28.5203 9.28032C28.8315 10.0123 28.8196 11.1107 28.5903 11.867C28.5203 12.0318 28.5203 12.0318 28.438 12.1873C28.3924 12.2749 28.3924 12.2749 28.3459 12.3643C27.979 12.9984 27.4448 13.4963 26.7505 13.7498C26.6886 13.7498 26.6267 13.7498 26.563 13.7498C26.5632 13.8577 26.5632 13.8577 26.5633 13.9679C26.566 15.6771 26.5681 17.3863 26.5694 19.0955C26.5695 19.306 26.5697 19.5165 26.5699 19.7271C26.5699 19.7899 26.5699 19.7899 26.57 19.854C26.5705 20.532 26.5715 21.21 26.5726 21.888C26.5738 22.5841 26.5745 23.2801 26.5747 23.9761C26.5749 24.3669 26.5753 24.7577 26.5762 25.1485C26.5771 25.5165 26.5773 25.8844 26.5771 26.2524C26.5772 26.3873 26.5774 26.5222 26.5779 26.6572C26.5785 26.8417 26.5784 27.0262 26.578 27.2108C26.5786 27.2904 26.5786 27.2904 26.5791 27.3716C26.5763 27.941 26.5019 28.4313 26.0876 28.8516C25.7152 29.1928 25.3701 29.2837 24.8682 29.2735C24.4853 29.2232 24.1387 29.0456 23.8794 28.7576C23.6354 28.388 23.5393 28.1108 23.5417 27.6678C23.5417 27.6244 23.5416 27.5811 23.5416 27.5364C23.5417 27.3947 23.5432 27.2531 23.5447 27.1114C23.545 27.0125 23.5453 26.9136 23.5455 26.8148C23.5462 26.5557 23.548 26.2967 23.5501 26.0377C23.552 25.7729 23.5529 25.5081 23.5538 25.2433C23.5558 24.7246 23.5591 24.206 23.563 23.6873C23.233 23.6873 22.903 23.6873 22.563 23.6873C22.5636 23.7806 22.5643 23.8739 22.565 23.97C22.5672 24.3183 22.5687 24.6665 22.5699 25.0148C22.5705 25.1652 22.5713 25.3155 22.5724 25.4658C22.5739 25.6827 22.5746 25.8996 22.5752 26.1165C22.5758 26.183 22.5765 26.2495 22.5772 26.318C22.5773 27.1277 22.4307 27.8172 21.8677 28.4256C21.459 28.8123 20.9238 29.0693 20.3556 29.0707C20.3017 29.071 20.2479 29.0713 20.1924 29.0715C20.1041 29.0715 20.1041 29.0715 20.014 29.0715C19.9512 29.0717 19.8884 29.072 19.8238 29.0722C19.6128 29.0729 19.4019 29.0731 19.1909 29.0734C19.0399 29.0738 18.8889 29.0742 18.7379 29.0746C18.2842 29.0758 17.8306 29.0765 17.3769 29.077C17.1631 29.0773 16.9493 29.0776 16.7355 29.078C16.0244 29.079 15.3133 29.0799 14.6022 29.0804C14.4177 29.0805 14.2332 29.0806 14.0488 29.0808C14.0029 29.0808 13.9571 29.0808 13.9099 29.0808C13.1677 29.0814 12.4255 29.0829 11.6834 29.085C10.9208 29.087 10.1583 29.0882 9.3957 29.0884C8.9678 29.0885 8.5399 29.089 8.112 29.0906C7.70924 29.0922 7.3065 29.0924 6.90375 29.0917C6.75619 29.0917 6.60862 29.0921 6.46106 29.0929C6.25904 29.0941 6.05707 29.0936 5.85505 29.0928C5.76821 29.0938 5.76821 29.0938 5.67961 29.0949C4.97494 29.088 4.3937 28.825 3.89526 28.3335C3.50145 27.9024 3.30556 27.4522 3.3046 26.8694C3.30432 26.7909 3.30404 26.7124 3.30375 26.6316C3.30376 26.5443 3.30377 26.457 3.30379 26.3698C3.30358 26.2772 3.30335 26.1846 3.30309 26.092C3.30247 25.8373 3.30223 25.5825 3.30207 25.3277C3.30182 25.0531 3.30123 24.7785 3.30068 24.5038C3.29945 23.8404 3.29882 23.177 3.29826 22.5136C3.29799 22.2012 3.29765 21.8887 3.29732 21.5763C3.29626 20.5378 3.29535 19.4993 3.2949 18.4607C3.29478 18.1912 3.29466 17.9217 3.29454 17.6522C3.29449 17.5518 3.29449 17.5518 3.29445 17.4493C3.29393 16.3641 3.29235 15.279 3.29032 14.1939C3.28825 13.0798 3.28712 11.9657 3.28692 10.8517C3.28679 10.2262 3.28624 9.60067 3.28464 8.97515C3.28329 8.44245 3.28279 7.90975 3.28339 7.37705C3.28368 7.10532 3.28356 6.83361 3.28235 6.56189C3.28124 6.3129 3.2813 6.06394 3.28228 5.81495C3.28242 5.72511 3.28215 5.63526 3.28141 5.54542C3.27497 4.71488 3.4597 4.12149 4.03955 3.51934C4.42793 3.15973 4.92498 2.9302 5.45792 2.92892C5.51177 2.92864 5.56562 2.92836 5.6211 2.92807C5.7094 2.92809 5.70941 2.92809 5.79949 2.92811C5.86226 2.92788 5.92503 2.92765 5.9897 2.92741C6.20066 2.92672 6.41161 2.92648 6.62257 2.92624C6.77359 2.92585 6.9246 2.92544 7.07561 2.925C7.52926 2.9238 7.98291 2.92313 8.43656 2.92258C8.65037 2.9223 8.86418 2.92197 9.078 2.92164C9.7891 2.92058 10.5002 2.91967 11.2113 2.91922C11.3958 2.9191 11.5802 2.91898 11.7647 2.91886C11.8105 2.91883 11.8564 2.9188 11.9036 2.91877C12.6458 2.91825 13.3879 2.91667 14.1301 2.91463C14.8927 2.91257 15.6552 2.91144 16.4178 2.91124C16.8457 2.91111 17.2736 2.91056 17.7015 2.90896C18.1042 2.90746 18.507 2.90724 18.9097 2.90789C19.0573 2.90792 19.2049 2.90752 19.3524 2.90666C19.5544 2.90555 19.7564 2.906 19.9584 2.90682C20.0453 2.90579 20.0453 2.90579 20.1339 2.90474C20.824 2.91148 21.404 3.16939 21.9106 3.63262C22.5144 4.25905 22.5832 5.05318 22.5752 5.88311C22.5749 5.98791 22.5749 5.98791 22.5747 6.09482C22.574 6.31576 22.5724 6.53668 22.5708 6.75762C22.5702 6.90833 22.5696 7.05905 22.5691 7.20977C22.5677 7.57729 22.5656 7.94479 22.563 8.31231C22.893 8.31231 23.223 8.31231 23.563 8.31231C23.5617 8.18083 23.5604 8.04935 23.559 7.91388C23.5549 7.47783 23.5521 7.04178 23.55 6.60572C23.5487 6.34152 23.547 6.07733 23.5441 5.81315C23.5414 5.55784 23.5399 5.30255 23.5393 5.04723C23.5388 4.95018 23.5379 4.85313 23.5366 4.75609C23.5285 4.15699 23.5353 3.64294 23.9358 3.16607C23.9765 3.13311 24.0172 3.10016 24.0591 3.06621C24.0996 3.03213 24.1401 2.99805 24.1819 2.96294C24.6291 2.66231 25.2893 2.62553 25.7817 2.84746ZM24.2422 3.73271C24.1098 3.96475 24.0942 4.09436 24.0942 4.35935C24.0939 4.40042 24.0935 4.44149 24.0932 4.4838C24.0923 4.62129 24.0932 4.7587 24.0942 4.89618C24.0939 4.99579 24.0936 5.0954 24.0931 5.19501C24.0922 5.46863 24.0928 5.74223 24.0937 6.01585C24.0944 6.31097 24.0937 6.60609 24.0931 6.90121C24.0922 7.47929 24.0927 8.05736 24.0937 8.63544C24.0947 9.30838 24.0945 9.98131 24.0943 10.6543C24.0939 11.8548 24.0948 13.0552 24.0963 14.2557C24.0978 15.4212 24.0983 16.5866 24.0976 17.752C24.0969 19.0206 24.0968 20.2892 24.0977 21.5577C24.0978 21.6929 24.0979 21.8282 24.098 21.9634C24.098 22.0299 24.0981 22.0964 24.0981 22.165C24.0984 22.6343 24.0983 23.1036 24.098 23.5729C24.0977 24.1446 24.0981 24.7163 24.0993 25.288C24.0999 25.5798 24.1003 25.8716 24.0998 26.1634C24.0993 26.4304 24.0998 26.6973 24.1009 26.9643C24.1011 27.061 24.1011 27.1578 24.1007 27.2545C24.1001 27.3857 24.1008 27.5169 24.1017 27.6481C24.1018 27.7211 24.1018 27.7941 24.1019 27.8692C24.139 28.1733 24.2705 28.3313 24.481 28.5467C24.7013 28.718 24.9099 28.7764 25.188 28.7498C25.5204 28.6465 25.7483 28.4832 25.938 28.1873C26.0074 27.979 26.0085 27.8238 26.0089 27.6043C26.009 27.5638 26.0092 27.5233 26.0093 27.4816C26.0097 27.345 26.0097 27.2085 26.0097 27.0719C26.0099 26.9733 26.0101 26.8748 26.0104 26.7762C26.011 26.5047 26.0112 26.2332 26.0114 25.9616C26.0117 25.6691 26.0122 25.3765 26.0128 25.0839C26.014 24.377 26.0147 23.6701 26.0152 22.9632C26.0155 22.6304 26.0158 22.2976 26.0162 21.9649C26.0172 20.859 26.0181 19.753 26.0186 18.6471C26.0187 18.3601 26.0188 18.073 26.0189 17.7859C26.019 17.7146 26.019 17.6432 26.019 17.5697C26.0195 16.4136 26.0211 15.2574 26.0232 14.1013C26.0252 12.9147 26.0264 11.7282 26.0266 10.5417C26.0267 9.87532 26.0272 9.20895 26.0288 8.54257C26.0302 7.97511 26.0307 7.40767 26.0301 6.84021C26.0298 6.55065 26.0299 6.26111 26.0311 5.97156C26.0322 5.70642 26.0322 5.44131 26.0312 5.17617C26.031 5.08031 26.0313 4.98445 26.0321 4.8886C26.0357 4.3916 26.0348 3.98724 25.7505 3.56231C25.5311 3.35333 25.3586 3.29526 25.063 3.28106C24.6825 3.29819 24.4765 3.43313 24.2422 3.73271ZM4.12549 4.24981C3.88394 4.63643 3.80531 4.98536 3.80477 5.44082C3.80453 5.51729 3.80429 5.59377 3.80405 5.67256C3.80409 5.75723 3.80415 5.84189 3.80421 5.92656C3.80405 6.01666 3.80386 6.10676 3.80365 6.19686C3.80314 6.44447 3.80303 6.69209 3.80299 6.93971C3.80287 7.20676 3.8024 7.47381 3.80198 7.74086C3.80113 8.32479 3.80075 8.90873 3.80048 9.49267C3.8003 9.85729 3.80004 10.2219 3.79976 10.5865C3.79899 11.5961 3.79835 12.6057 3.79814 13.6153C3.79813 13.6799 3.79811 13.7445 3.7981 13.811C3.79809 13.8758 3.79807 13.9406 3.79806 14.0073C3.79803 14.1385 3.798 14.2698 3.79797 14.401C3.79796 14.4661 3.79795 14.5312 3.79793 14.5982C3.79768 15.6531 3.79659 16.708 3.79514 17.7628C3.79366 18.8459 3.79288 19.9289 3.7928 21.012C3.79275 21.6201 3.79239 22.2281 3.79125 22.8362C3.79029 23.354 3.78997 23.8718 3.79049 24.3895C3.79073 24.6536 3.79067 24.9178 3.7898 25.1819C3.789 25.4238 3.78907 25.6658 3.78983 25.9078C3.78995 25.9951 3.78976 26.0825 3.78922 26.1698C3.78512 26.8714 3.84902 27.4672 4.3623 27.9883C4.82469 28.4159 5.20401 28.528 5.82162 28.5249C5.88451 28.5253 5.94739 28.5257 6.01218 28.5262C6.22241 28.5273 6.43263 28.5272 6.64287 28.527C6.79381 28.5276 6.94475 28.5282 7.09569 28.5289C7.46289 28.5304 7.83009 28.531 8.19729 28.5311C8.49598 28.5312 8.79466 28.5316 9.09335 28.5322C9.94124 28.5338 10.7891 28.5347 11.637 28.5346C11.7055 28.5346 11.7055 28.5346 11.7754 28.5345C11.844 28.5345 11.844 28.5345 11.914 28.5345C12.6545 28.5345 13.3949 28.5362 14.1354 28.5389C14.8968 28.5416 15.6581 28.5429 16.4195 28.5427C16.8466 28.5427 17.2736 28.5432 17.7006 28.5452C18.1024 28.5471 18.5042 28.547 18.9061 28.5457C19.0532 28.5455 19.2004 28.5459 19.3475 28.547C20.4248 28.5759 20.4248 28.5759 21.3755 28.1248C21.8943 27.6068 22.0209 27.0745 22.0259 26.3546C22.0255 26.2703 22.0251 26.1859 22.0247 26.1016C22.025 26.0108 22.0253 25.9201 22.0257 25.8294C22.0266 25.5811 22.0264 25.3329 22.0259 25.0847C22.0256 24.8165 22.0264 24.5483 22.027 24.2802C22.0281 23.7553 22.0282 23.2304 22.0278 22.7054C22.0276 22.2787 22.0277 21.852 22.028 21.4252C22.0281 21.3644 22.0281 21.3036 22.0282 21.241C22.0282 21.1175 22.0283 20.994 22.0284 20.8705C22.0293 19.713 22.029 18.5554 22.0282 17.3979C22.0276 16.3395 22.0284 15.2811 22.0299 14.2227C22.0315 13.1352 22.0321 12.0478 22.0316 10.9603C22.0314 10.3501 22.0316 9.73986 22.0327 9.12961C22.0336 8.61011 22.0336 8.09063 22.0325 7.57113C22.032 7.30623 22.0319 7.04135 22.0328 6.77645C22.0337 6.53363 22.0334 6.29085 22.0322 6.04804C22.0319 5.96052 22.0321 5.87299 22.0328 5.78548C22.0373 5.13517 21.9739 4.45943 21.4936 3.97183C20.778 3.38381 20.0145 3.44668 19.1331 3.45228C18.982 3.45187 18.8308 3.4513 18.6796 3.45059C18.313 3.4493 17.9464 3.44975 17.5799 3.45106C17.2818 3.45208 16.9837 3.45234 16.6856 3.45206C16.6218 3.452 16.6218 3.452 16.5566 3.45194C16.4701 3.45186 16.3837 3.45177 16.2972 3.45168C15.4879 3.45094 14.6787 3.45244 13.8695 3.45474C13.1762 3.45668 12.4829 3.45682 11.7895 3.45563C10.9829 3.45425 10.1762 3.45387 9.36949 3.45515C9.28337 3.45529 9.19726 3.45542 9.11114 3.45556C9.06878 3.45562 9.02642 3.45569 8.98277 3.45576C8.68521 3.45616 8.38766 3.45586 8.09011 3.4553C7.68924 3.45457 7.2884 3.45553 6.88753 3.4576C6.74065 3.45811 6.59376 3.4581 6.44688 3.45751C6.24594 3.45679 6.0451 3.45801 5.84417 3.4597C5.78643 3.45905 5.7287 3.45839 5.66921 3.45772C5.03914 3.46758 4.51137 3.75206 4.12549 4.24981ZM26.563 8.12481C26.563 9.79543 26.563 11.4661 26.563 13.1873C27.2248 12.9226 27.7094 12.4603 27.9927 11.8045C28.2878 11.0676 28.2712 10.2426 28.0005 9.49981C27.7156 8.89732 27.288 8.4241 26.688 8.12481C26.6467 8.12481 26.6055 8.12481 26.563 8.12481ZM22.563 8.87481C22.563 9.32856 22.563 9.78231 22.563 10.2498C22.893 10.2498 23.223 10.2498 23.563 10.2498C23.563 9.79606 23.563 9.34231 23.563 8.87481C23.233 8.87481 22.903 8.87481 22.563 8.87481ZM22.563 10.7498C22.563 14.2148 22.563 17.6798 22.563 21.2498C22.893 21.2498 23.223 21.2498 23.563 21.2498C23.563 17.7848 23.563 14.3198 23.563 10.7498C23.233 10.7498 22.903 10.7498 22.563 10.7498ZM22.563 21.7498C22.563 22.2036 22.563 22.6573 22.563 23.1248C22.893 23.1248 23.223 23.1248 23.563 23.1248C23.563 22.6711 23.563 22.2173 23.563 21.7498C23.233 21.7498 22.903 21.7498 22.563 21.7498Z" fill="#522008"/>
</svg>
