<svg width="24" height="24" viewBox="0 0 24 24" fill="none" xmlns="http://www.w3.org/2000/svg">
<path d="M11.7245 1.43994C11.0702 1.44369 10.4139 1.48307 9.75203 1.56369C8.48641 1.71932 7.23203 1.97807 6.02828 2.53119C4.11391 3.41057 2.75641 4.90307 2.36266 7.07244C2.19578 7.98744 2.06078 8.91557 1.98391 9.84932C1.83578 11.6624 1.92766 13.4812 2.44141 15.2681C2.84641 16.6762 3.59266 17.9418 4.89953 18.7631C5.45266 19.1099 6.18203 19.2787 6.56266 19.4549C6.66953 19.5056 6.69578 19.5356 6.70141 19.5431C6.70703 19.5487 6.72203 19.5618 6.72016 19.6743C6.70703 20.8218 6.72016 23.0418 6.72016 23.0418L6.72203 23.5199H7.57891L7.71766 23.3849C7.71766 23.3849 9.89453 21.2906 10.682 20.4281C10.8245 20.2743 10.8977 20.1881 10.9127 20.1787C10.9258 20.1693 10.9033 20.1637 11.0495 20.1599C12.0827 20.1393 13.1139 20.0999 14.1452 20.0437C15.5045 19.9687 16.8902 19.8393 18.2233 19.2824C19.3839 18.7968 20.3533 18.0037 20.9402 16.8149C21.5402 15.5962 21.8608 14.3043 21.9808 12.9674C22.1795 10.7418 22.1102 8.51244 21.4952 6.31494C21.1333 5.02682 20.4058 3.93744 19.2902 3.16869C17.9552 2.24994 16.4495 1.90494 14.9758 1.68557C14.1152 1.55807 13.2489 1.47369 12.3789 1.44744C12.1614 1.44182 11.9439 1.43807 11.7245 1.43994ZM12.3527 2.40744C13.1795 2.42994 14.0064 2.51057 14.8352 2.63432C16.2564 2.84619 17.597 3.16869 18.7464 3.95994C19.6783 4.60119 20.2595 5.46744 20.5708 6.57182C21.1445 8.62682 21.2177 10.7324 21.0245 12.8831C20.9139 14.1224 20.6195 15.2906 20.0777 16.3912C19.5995 17.3624 18.8533 17.9793 17.852 18.3974C16.6895 18.8831 15.4258 19.0124 14.0945 19.0856C13.0745 19.1418 12.0527 19.1793 11.0308 19.1999C10.7739 19.2056 10.5227 19.2731 10.3445 19.4043C10.1664 19.5356 10.0858 19.6574 9.97516 19.7774C9.41266 20.3924 8.29141 21.4743 7.68016 22.0668C7.67641 21.3506 7.67078 20.4843 7.68016 19.6856C7.68391 19.4399 7.62766 19.1887 7.48703 18.9899C7.34641 18.7912 7.15328 18.6712 6.96766 18.5849C6.42578 18.3337 5.71703 18.1424 5.40953 17.9493C4.33516 17.2743 3.72578 16.2618 3.36391 15.0018C2.88953 13.3537 2.79953 11.6568 2.94016 9.92994C3.01516 9.03369 3.14453 8.13557 3.30766 7.24494C3.64891 5.36807 4.72141 4.18682 6.42766 3.40307C7.50578 2.90807 8.65703 2.66432 9.87016 2.51619C10.697 2.41494 11.5239 2.38307 12.3527 2.40744ZM12.5552 4.79994C12.1595 4.79994 11.7752 4.84494 11.402 4.92744C11.1452 4.98744 10.982 5.24432 11.0402 5.50307C11.0983 5.76182 11.357 5.92307 11.6158 5.86494C11.9177 5.79557 12.2327 5.75994 12.5552 5.75994C14.8989 5.75994 16.7889 7.64994 16.7889 9.99182C16.7889 10.3162 16.7533 10.6312 16.6839 10.9349C16.6258 11.1918 16.787 11.4506 17.0458 11.5087C17.3045 11.5668 17.5614 11.4037 17.6195 11.1449C17.7039 10.7737 17.7489 10.3893 17.7489 9.99182C17.7489 7.13057 15.4183 4.79994 12.5552 4.79994ZM7.76641 5.76182C7.68766 5.75807 7.60703 5.76369 7.52266 5.78244C6.65078 5.97557 5.78453 6.60744 5.76016 7.73619C5.78453 7.89369 5.78266 8.06244 5.84078 8.20494C6.12578 8.90244 6.37328 9.62244 6.72953 10.2824C8.46391 13.4887 11.087 15.7181 14.4302 17.1337C14.8295 17.3024 15.242 17.3381 15.6452 17.1693C16.2002 16.9387 16.6708 16.5824 16.9839 16.0706C17.4133 15.3674 17.4189 14.8799 16.712 14.3606C16.2489 14.0193 15.7933 13.6687 15.3245 13.3349C14.6102 12.8287 13.8377 12.7406 13.3052 13.6293C13.277 13.6743 13.2358 13.7118 13.2002 13.7493C12.9264 14.0399 12.5908 14.1112 12.2345 13.9649C10.8827 13.4081 9.83828 12.5099 9.20828 11.1731C8.83703 10.3874 8.93828 9.99369 9.63203 9.47057C9.70141 9.41994 9.76703 9.36557 9.83078 9.30744C10.1345 9.02994 10.2152 8.69994 10.0352 8.32682C9.62828 7.47557 9.08641 6.71619 8.40016 6.06182C8.21453 5.88557 8.00266 5.77494 7.76641 5.76182ZM12.5477 6.23994C12.3358 6.23994 12.1258 6.25682 11.9195 6.29244C11.7452 6.31494 11.597 6.43119 11.5333 6.59432C11.4695 6.75932 11.5014 6.94494 11.6139 7.07994C11.7283 7.21307 11.9083 7.27494 12.0808 7.23744C12.2308 7.21307 12.3883 7.19994 12.5477 7.19994C14.1077 7.19994 15.3602 8.45244 15.3602 10.0124C15.3602 10.1718 15.347 10.3293 15.3227 10.4793C15.2852 10.6518 15.347 10.8318 15.4802 10.9462C15.6152 11.0587 15.8008 11.0906 15.9658 11.0268C16.1289 10.9631 16.2452 10.8149 16.2677 10.6406C16.3033 10.4343 16.3202 10.2243 16.3202 10.0124C16.3202 7.93494 14.6252 6.23994 12.5477 6.23994ZM12.4802 7.67994C12.3077 7.67807 12.1464 7.76807 12.0583 7.91807C11.972 8.06807 11.972 8.25182 12.0583 8.40182C12.1464 8.55182 12.3077 8.64182 12.4802 8.63994C13.2808 8.63994 13.9202 9.27932 13.9202 10.0799C13.9183 10.2524 14.0083 10.4137 14.1583 10.5018C14.3083 10.5881 14.492 10.5881 14.642 10.5018C14.792 10.4137 14.882 10.2524 14.8802 10.0799C14.8802 8.75994 13.8002 7.67994 12.4802 7.67994Z" fill="white"/>
<path fill-rule="evenodd" clip-rule="evenodd" d="M12.3527 2.40744C13.1795 2.42994 14.0064 2.51057 14.8352 2.63432C16.2564 2.84619 17.597 3.16869 18.7464 3.95994C19.6783 4.60119 20.2595 5.46744 20.5708 6.57182C21.1445 8.62682 21.2177 10.7324 21.0245 12.8831C20.9139 14.1224 20.6195 15.2906 20.0777 16.3912C19.5995 17.3624 18.8533 17.9793 17.852 18.3974C16.6895 18.8831 15.4258 19.0124 14.0945 19.0856C13.0745 19.1418 12.0527 19.1793 11.0308 19.1999C10.7739 19.2056 10.5227 19.2731 10.3445 19.4043C10.1664 19.5356 10.0858 19.6574 9.97516 19.7774C9.41266 20.3924 8.29141 21.4743 7.68016 22.0668C7.67641 21.3506 7.67078 20.4843 7.68016 19.6856C7.68391 19.4399 7.62766 19.1887 7.48703 18.9899C7.34641 18.7912 7.15328 18.6712 6.96766 18.5849C6.42578 18.3337 5.71703 18.1424 5.40953 17.9493C4.33516 17.2743 3.72578 16.2618 3.36391 15.0018C2.88953 13.3537 2.79953 11.6568 2.94016 9.92994C3.01516 9.03369 3.14453 8.13557 3.30766 7.24494C3.64891 5.36807 4.72141 4.18682 6.42766 3.40307C7.50578 2.90807 8.65703 2.66432 9.87016 2.51619C10.697 2.41494 11.5239 2.38307 12.3527 2.40744ZM11.402 4.92744C11.7752 4.84494 12.1595 4.79994 12.5552 4.79994C15.4183 4.79994 17.7489 7.13057 17.7489 9.99182C17.7489 10.3893 17.7039 10.7737 17.6195 11.1449C17.5614 11.4037 17.3045 11.5668 17.0458 11.5087C16.787 11.4506 16.6258 11.1918 16.6839 10.9349C16.7533 10.6312 16.7889 10.3162 16.7889 9.99182C16.7889 7.64994 14.8989 5.75994 12.5552 5.75994C12.2327 5.75994 11.9177 5.79557 11.6158 5.86494C11.357 5.92307 11.0983 5.76182 11.0402 5.50307C10.982 5.24432 11.1452 4.98744 11.402 4.92744ZM7.52266 5.78244C7.60703 5.76369 7.68766 5.75807 7.76641 5.76182C8.00266 5.77494 8.21453 5.88557 8.40016 6.06182C9.08641 6.71619 9.62828 7.47557 10.0352 8.32682C10.2152 8.69994 10.1345 9.02994 9.83078 9.30744C9.76703 9.36557 9.70141 9.41994 9.63203 9.47057C8.93828 9.99369 8.83703 10.3874 9.20828 11.1731C9.83828 12.5099 10.8827 13.4081 12.2345 13.9649C12.5908 14.1112 12.9264 14.0399 13.2002 13.7493C13.2358 13.7118 13.277 13.6743 13.3052 13.6293C13.8377 12.7406 14.6102 12.8287 15.3245 13.3349C15.7933 13.6687 16.2489 14.0193 16.712 14.3606C17.4189 14.8799 17.4133 15.3674 16.9839 16.0706C16.6708 16.5824 16.2002 16.9387 15.6452 17.1693C15.242 17.3381 14.8295 17.3024 14.4302 17.1337C11.087 15.7181 8.46391 13.4887 6.72953 10.2824C6.37328 9.62244 6.12578 8.90244 5.84078 8.20494C5.78266 8.06244 5.78453 7.89369 5.76016 7.73619C5.78453 6.60744 6.65078 5.97557 7.52266 5.78244ZM11.9195 6.29244C12.1258 6.25682 12.3358 6.23994 12.5477 6.23994C14.6252 6.23994 16.3202 7.93494 16.3202 10.0124C16.3202 10.2243 16.3033 10.4343 16.2677 10.6406C16.2452 10.8149 16.1289 10.9631 15.9658 11.0268C15.8008 11.0906 15.6152 11.0587 15.4802 10.9462C15.347 10.8318 15.2852 10.6518 15.3227 10.4793C15.347 10.3293 15.3602 10.1718 15.3602 10.0124C15.3602 8.45244 14.1077 7.19994 12.5477 7.19994C12.3883 7.19994 12.2308 7.21307 12.0808 7.23744C11.9083 7.27494 11.7283 7.21307 11.6139 7.07994C11.5014 6.94494 11.4695 6.75932 11.5333 6.59432C11.597 6.43119 11.7452 6.31494 11.9195 6.29244ZM12.0583 7.91807C12.1464 7.76807 12.3077 7.67807 12.4802 7.67994C13.8002 7.67994 14.8802 8.75994 14.8802 10.0799C14.882 10.2524 14.792 10.4137 14.642 10.5018C14.492 10.5881 14.3083 10.5881 14.1583 10.5018C14.0083 10.4137 13.9183 10.2524 13.9202 10.0799C13.9202 9.27932 13.2808 8.63994 12.4802 8.63994C12.3077 8.64182 12.1464 8.55182 12.0583 8.40182C11.972 8.25182 11.972 8.06807 12.0583 7.91807Z" fill="#522008"/>
</svg>
