<svg width="74" height="72" viewBox="0 0 74 72" fill="none" xmlns="http://www.w3.org/2000/svg">
<path d="M19.2275 1.35959C19.2275 2.51314 19.136 3.368 18.6171 6.79776C18.2814 9.03277 17.9864 10.9588 17.9559 11.0721C17.9355 11.1957 17.7321 11.5665 17.5184 11.9063L17.1318 12.514L14.3342 13.5749C12.798 14.1619 11.5061 14.6769 11.4654 14.7181C11.4145 14.7696 11.9333 14.9447 12.6048 15.1095L13.8357 15.4288L15.26 14.9241L16.6842 14.4297L16.7046 19.9812L16.7351 25.543L20.2652 22.7312L23.7851 19.9297L23.8258 17.5711L23.8563 15.2125L25.5654 14.7902C26.5014 14.5636 27.2644 14.3576 27.2644 14.3267C27.2644 14.2958 26.7455 13.9251 26.1148 13.5028L24.9652 12.7303L22.249 7.70412L19.5327 2.66763V1.33899C19.5327 0.216337 19.5124 4.76837e-05 19.3801 4.76837e-05C19.2479 4.76837e-05 19.2275 0.216337 19.2275 1.35959Z" fill="#121212"/>
<path d="M36.6237 16.0672C36.6237 17.365 36.5932 18.4361 36.5627 18.4361C36.522 18.4361 36.1557 18.1271 35.7488 17.7563L34.996 17.0766V16.1084C34.996 15.5728 34.9553 15.1403 34.9146 15.1403C34.8739 15.1403 33.4903 14.8622 31.8626 14.5223C30.2247 14.1824 28.8107 13.9043 28.7293 13.9043C28.597 13.9043 28.5869 14.0897 28.6479 15.2124C28.6784 15.9436 28.7395 16.6749 28.7801 16.8397C28.831 17.0869 29.8382 18.1374 33.0936 21.3612L37.3358 25.5737V28.0868V30.6102L36.5525 30.5484C36.115 30.5175 34.9349 30.4454 33.9278 30.3836C32.9206 30.3321 31.7609 30.2497 31.3641 30.2188L30.6215 30.157V29.2507V28.3443L31.5676 27.4894C32.0763 27.0157 32.5035 26.6037 32.5035 26.5728C32.5035 26.4286 26.6946 18.5597 26.6336 18.6215C26.5929 18.6627 25.7892 20.3415 24.8431 22.3499L23.1238 26.0063L16.4197 26.9024C12.7268 27.3967 9.60363 27.8087 9.46121 27.8293C9.27809 27.8499 9.67484 28.0662 10.8142 28.5503L12.4114 29.2404L17.3251 28.7872C20.021 28.54 22.4219 28.3134 22.666 28.2825L23.0933 28.2207V29.3537V30.4866H23.3782C23.5308 30.4866 25.0466 30.4145 26.7455 30.3321C28.4444 30.2394 29.8585 30.1879 29.8788 30.2188C29.9297 30.2703 29.7466 32.1345 29.6449 32.6701C29.594 32.9379 29.5533 32.9585 29.0345 32.9585H28.4851V37.1813V41.4041H29.5533H30.6215V37.171V32.9276L31.6693 32.9894C32.239 33.0306 33.5514 33.0821 34.589 33.113C35.6267 33.1439 36.6644 33.1954 36.9085 33.2263L37.3358 33.2778V39.921V46.5539H36.2168H35.0977V48.2534V49.9528H36.2168H37.3358V56.287V62.6213H40.3369H43.338V61.0763V59.5314H42.1681H40.9982V54.7421V49.9528H42.9209H44.8538L44.8843 54.7627C44.925 59.3975 44.9352 59.6138 45.1488 60.2524C45.7694 62.1578 47.0309 62.9714 49.3402 62.9714C51.0798 62.9714 52.4736 62.4565 53.9283 61.2823L54.6811 60.6746L54.7117 61.6531L54.7422 62.6315L61.8329 62.6007L68.9237 62.5698L69.7782 62.2711C71.4364 61.684 72.6165 60.6849 73.2981 59.2739C73.8475 58.1512 74.0001 57.4097 74.0001 55.875C73.9797 52.7337 72.9624 50.9415 70.4293 49.6541C70.0834 49.479 68.8321 49.0155 67.652 48.6138C65.2409 47.8105 64.6712 47.5324 64.0914 46.9041C63.6132 46.3788 63.4403 45.8021 63.5013 44.906C63.5827 43.8039 64.01 43.1654 64.9561 42.7225C65.4241 42.5165 65.6174 42.4959 67.4485 42.4856H69.4323L69.4628 44.1026L69.4934 45.73H71.1109H72.7386V42.5268V39.3339L68.5981 39.3648L64.4474 39.3957L63.6336 39.6841C63.186 39.8489 62.6468 40.0858 62.4433 40.23L62.0567 40.4772V34.0503V27.6336L58.8115 24.4511L55.5662 21.2685L55.556 19.6103C55.5459 18.055 55.5357 17.9417 55.3526 17.8902C55.2407 17.8593 55.1288 17.8696 55.0983 17.9005C55.0677 17.9314 55.0372 18.6936 55.0372 19.5897V21.2273L54.2742 20.5372C53.8571 20.1561 53.5112 19.7648 53.5112 19.6721C53.5112 19.5794 53.3586 19.3528 53.1755 19.1777C52.85 18.8584 52.7177 18.8172 50.5 18.3846C49.2181 18.1271 48.0686 17.8902 47.9465 17.8696C47.7328 17.8181 47.7125 17.7563 47.7125 17.0045C47.7125 16.2217 47.7023 16.1908 47.4582 16.1496L47.2038 16.0981L47.1835 18.1065L47.153 20.1149L46.3696 19.4249L45.5761 18.7245V18.0344V17.3547L42.4529 16.6955C40.7235 16.3453 38.872 15.9539 38.3328 15.8406L37.3358 15.6243V14.7283C37.3358 13.8837 37.3256 13.8219 37.112 13.7601C36.6135 13.6262 36.6237 13.5541 36.6237 16.0672ZM44.0705 23.4211C44.8335 23.5138 45.4947 23.5859 45.5253 23.5859C45.5558 23.5859 45.5761 23.7301 45.5761 23.9052C45.5761 24.2245 45.5761 24.2245 45.1488 24.1627C44.9047 24.1318 44.2333 24.0597 43.6432 23.9876L42.575 23.8743L41.5882 22.8855C40.7032 21.9998 40.5912 21.8453 40.5912 21.526V21.1655L41.6391 22.2161L42.6768 23.2666L44.0705 23.4211ZM47.1123 22.9267L48.0991 23.9258L49.4826 24.0803L50.8662 24.2451V24.5335C50.8662 24.8836 50.8255 24.8836 49.1469 24.6777L47.9872 24.5232L46.98 23.5138C46.1967 22.7207 45.9831 22.4426 45.9831 22.2264C45.9831 22.0616 46.0136 21.938 46.0543 21.938C46.095 21.938 46.5731 22.3808 47.1123 22.9267ZM54.3251 24.7085C55.9528 24.9145 55.9528 24.9145 55.9528 25.1926C55.9528 25.4913 55.9528 25.4913 54.4166 25.2853L53.2569 25.1308L52.2701 24.1318C51.4461 23.3078 51.2731 23.0709 51.2731 22.8134C51.2731 22.525 51.3138 22.5559 52.321 23.5447L53.3586 24.5953L54.3251 24.7085ZM48.8621 33.0203L50.2558 33.0924V35.6055V38.1083H47.5599H44.864V35.4716V32.8246L46.1662 32.8864C46.8783 32.9276 48.0889 32.9894 48.8621 33.0203ZM55.4747 33.3293L56.4615 33.3911V35.7497V38.1083H54.1725H51.8835V35.6261V33.1439L53.1857 33.2057C53.8978 33.2469 54.9253 33.2984 55.4747 33.3293ZM61.5786 33.6486C61.6193 33.6692 61.6498 34.6888 61.6498 35.9042V38.1083L59.6457 38.0877L57.6314 38.0568L57.6009 35.7497L57.5805 33.4426L59.5338 33.525C60.6121 33.5662 61.5277 33.6177 61.5786 33.6486ZM60.7953 41.6307C59.9305 42.877 59.5745 43.979 59.5745 45.3695C59.5745 46.8011 59.8491 47.9135 60.4494 48.9537C61.3853 50.5811 62.484 51.3226 65.1697 52.1672C68.6286 53.2486 69.2187 53.5473 69.7375 54.4949C70.0224 55.0202 70.0427 55.1129 70.0427 56.2355C70.0427 57.6054 69.9003 58.007 69.1678 58.6353C68.415 59.2945 68.0894 59.3563 65.4444 59.4078L63.0741 59.449V57.2243V54.9996L61.426 55.0202L59.7678 55.0511L59.7372 57.2346L59.7169 59.4284H58.9539H58.1909V52.9912V46.5539H55.2407H52.2904V48.2534V49.9528H53.4095H54.5286V53.053C54.5286 56.4003 54.4573 56.9874 53.969 57.832C53.4298 58.7589 52.4532 59.4181 51.3036 59.6241C50.1032 59.8507 49.1978 59.5108 48.8112 58.7177C48.5772 58.2439 48.5772 58.2027 48.5264 52.4247L48.4755 46.6054L44.7419 46.5745L40.9982 46.5539V43.979V41.4041H50.9781H60.958L60.7953 41.6307Z" fill="#121212"/>
<path d="M23.2153 33.1131C21.0789 33.1852 19.2986 33.2676 19.2681 33.2985C19.2376 33.3294 19.675 33.9371 20.2346 34.6478L21.2722 35.9455H22.5439H23.8054L23.7443 38.6749L23.6731 41.4043L25.8502 41.3837L28.0272 41.3528L28.0578 37.1506L28.0781 32.9587L27.6 32.969C27.3253 32.9793 25.3619 33.0411 23.2153 33.1131Z" fill="#121212"/>
<path d="M4.63884 39.5606C1.70895 40.2919 -0.173094 42.8668 0.0507169 45.833C0.244008 48.5006 1.37324 50.3031 3.51978 51.3845C3.8555 51.5493 4.81178 51.8995 5.65616 52.1673C9.19644 53.2693 9.73562 53.5474 10.2239 54.5362C10.5088 55.113 10.5291 55.2366 10.5291 56.2871C10.5291 57.5746 10.3765 58.0071 9.71527 58.5839C8.90142 59.3049 8.33172 59.4285 5.64599 59.4285H3.56048V57.2141V54.9997H1.8819H0.203315V58.8105V62.6213H4.45572C9.02349 62.6213 9.43042 62.5904 10.6817 62.0961C13.3776 61.0455 14.8121 58.2955 14.4458 54.8967C14.2525 53.0736 13.7439 51.9098 12.7062 50.8798C11.8822 50.0559 10.7529 49.4997 8.24016 48.6654C6.03257 47.9239 5.59512 47.7385 4.91352 47.2441C3.75377 46.4098 3.61134 44.2469 4.65918 43.2376C5.33062 42.5887 5.78841 42.4857 7.98583 42.4857H9.91874L9.94926 44.1027L9.97978 45.7301H11.5973H13.225V42.5372V39.3443L9.33886 39.3546C5.84945 39.3546 5.36114 39.3752 4.63884 39.5606Z" fill="#121212"/>
<path d="M15.8703 43.8247V46.5438L14.7818 46.5747L13.6831 46.6056V48.2535V49.9015L14.7818 49.9324L15.8703 49.9633V56.2872V62.6214H18.8714H21.8725V61.9005C21.8725 61.4988 21.9031 61.1795 21.9336 61.1795C21.9743 61.1795 22.2184 61.3855 22.4829 61.6327C23.073 62.1888 23.5715 62.4566 24.5379 62.7141C25.657 63.0231 26.6743 63.0746 27.5594 62.8892C28.4648 62.6935 29.8585 62.0343 30.357 61.5503L30.7232 61.2104V61.9108V62.6214H33.5717H36.4202V61.025V59.4286H35.3521H34.2839L34.2635 53.0119L34.233 46.6056H30.4689H26.7048L26.6743 48.2741L26.654 49.953H28.6377H30.6215V53.7844C30.6215 58.172 30.6215 58.1205 29.7568 58.893C28.9226 59.6346 27.5289 60.0259 26.3691 59.8302C25.1687 59.6449 24.6295 59.2123 24.4158 58.2853C24.2734 57.6879 24.3955 57.0082 24.7414 56.5138C25.1992 55.8649 26.4912 55.525 28.5665 55.5147H29.6042V54.0213V52.5279H28.0579C25.7282 52.5279 24.3853 52.8265 23.2561 53.5887C21.6182 54.7011 20.9976 56.0503 21.079 58.3162L21.1299 59.5316H20.3364H19.5327V54.7423V49.953H20.8552H22.1777V48.2535V46.5541H20.8552H19.5327V43.8247V41.0953H17.7015H15.8703V43.8247Z" fill="#121212"/>
<path d="M4.58818 67.4621C3.51999 67.7196 2.89943 69.1924 3.28601 70.5622C3.85571 72.5294 6.39901 72.4059 6.81611 70.3974C7.0501 69.2851 6.633 67.9976 5.93105 67.6372C5.53429 67.4312 4.99511 67.3694 4.58818 67.4621ZM5.79879 68.0594C5.94122 68.1624 6.15486 68.4508 6.28711 68.7083C6.49057 69.0894 6.52109 69.2748 6.4804 69.8516C6.40919 70.9742 5.88018 71.6334 5.0358 71.6334C3.38774 71.6334 2.98081 68.6259 4.52714 67.9152C4.89338 67.7402 5.4529 67.8019 5.79879 68.0594Z" fill="#121212"/>
<path d="M45.3522 67.4519C44.3247 67.6579 43.7041 68.5333 43.7041 69.7796C43.7041 70.3873 43.7448 70.5829 43.9686 70.9743C44.1212 71.2421 44.3552 71.5202 44.4976 71.6129C44.9045 71.891 45.6268 72.0249 46.2372 71.9425C46.7052 71.891 46.7968 71.8395 46.7968 71.6644C46.7968 71.5305 46.7459 71.479 46.6543 71.5099C46.1762 71.6953 45.576 71.6953 45.1487 71.4996C44.5078 71.2112 44.2229 70.7683 44.1721 69.9547C44.0703 68.4303 45.0368 67.4931 46.3186 67.8536C46.6543 67.9463 46.695 67.936 46.695 67.7712C46.695 67.6682 46.6136 67.5549 46.5221 67.524C46.105 67.4107 45.7082 67.3901 45.3522 67.4519Z" fill="#121212"/>
<path d="M53.8264 67.462C52.5344 67.771 51.9341 69.8412 52.7683 71.139C53.216 71.8394 54.0196 72.138 54.7928 71.8909C55.5151 71.654 55.9424 71.0463 56.1052 70.0678C56.1764 69.5838 55.9627 68.5435 55.6881 68.1315C55.3422 67.5959 54.5181 67.2972 53.8264 67.462ZM55.037 68.0594C55.5151 68.4302 55.6982 68.8834 55.6982 69.7279C55.6982 70.315 55.6474 70.5828 55.4948 70.8506C54.8945 71.8806 53.7857 71.9115 53.0634 70.933C52.8396 70.6343 52.7276 69.6764 52.8396 69.0688C52.9209 68.6259 53.338 68.1006 53.7653 67.9152C54.1417 67.7401 54.6911 67.8019 55.037 68.0594Z" fill="#121212"/>
<path d="M0 69.728C0 71.6746 0.0203464 71.9939 0.152598 71.9939C0.28485 71.9939 0.305197 71.6952 0.305197 69.8825V67.7711H1.22079C1.96343 67.7711 2.13638 67.7402 2.13638 67.6166C2.13638 67.493 1.95326 67.4621 1.06819 67.4621H0V69.728Z" fill="#121212"/>
<path d="M8.13867 67.6166C8.13867 67.7402 8.27092 67.7711 8.74906 67.7711H9.35946V69.8928C9.35946 71.8497 9.36963 72.0042 9.54258 71.9733C9.69517 71.9424 9.71552 71.7467 9.74604 69.8516L9.76639 67.7711H10.3768C10.8549 67.7711 10.9872 67.7402 10.9872 67.6166C10.9872 67.4827 10.7634 67.4621 9.56292 67.4621C8.36248 67.4621 8.13867 67.4827 8.13867 67.6166Z" fill="#121212"/>
<path d="M12.8184 69.728V71.9939H13.8865C14.8835 71.9939 14.9547 71.9836 14.9547 71.7879C14.9547 71.6025 14.8835 71.5819 14.09 71.5819H13.2253V70.7065V69.831H13.9883C14.6801 69.831 14.7513 69.8104 14.7513 69.625C14.7513 69.4396 14.6801 69.419 13.9883 69.419H13.2253V68.595V67.7711H14.0391C14.6902 67.7711 14.853 67.7402 14.853 67.6166C14.853 67.493 14.6699 67.4621 13.8357 67.4621H12.8184V69.728Z" fill="#121212"/>
<path d="M17.4774 69.1306C17.4164 71.0154 17.2943 71.5304 16.8467 71.6437C16.5109 71.7261 16.5008 71.9939 16.8263 71.9939C17.1824 71.9939 17.5791 71.6231 17.691 71.1905C17.7521 70.9845 17.8233 70.1297 17.864 69.2851L17.9352 67.7711H18.688H19.4307V69.8825C19.4307 71.9218 19.4408 71.9939 19.6341 71.9939C19.8274 71.9939 19.8376 71.9218 19.8376 69.728V67.4621H18.6778H17.5283L17.4774 69.1306Z" fill="#121212"/>
<path d="M22.1777 69.728V71.9939H22.8899C23.2866 71.9939 23.7648 71.9321 23.958 71.8497C24.4057 71.654 24.721 71.139 24.721 70.5932C24.721 69.8104 24.0903 69.316 23.0933 69.316H22.5847V68.3891C22.5847 67.5342 22.5745 67.4621 22.3812 67.4621C22.1879 67.4621 22.1777 67.5342 22.1777 69.728ZM23.7546 69.7795C24.3751 70.037 24.4972 70.7888 24.0191 71.2832C23.7546 71.5407 23.6427 71.5819 23.1544 71.5819H22.5847V70.6035V69.625H22.9916C23.2154 69.625 23.5613 69.6971 23.7546 69.7795Z" fill="#121212"/>
<path d="M35.4028 69.728C35.4028 71.9218 35.413 71.9939 35.6063 71.9939C35.7996 71.9939 35.8098 71.9218 35.8098 71.0154V70.037H36.3184C36.9797 70.037 37.4171 69.8104 37.6002 69.3675C37.9054 68.6259 37.6816 67.8638 37.0814 67.6063C36.8881 67.5239 36.4303 67.4621 36.0641 67.4621H35.4028V69.728ZM36.8169 67.9256C37.1628 68.1007 37.3561 68.5744 37.2645 69.0173C37.1831 69.4499 36.7864 69.728 36.2574 69.728H35.8098V68.7495V67.7711H36.1658C36.3693 67.7711 36.6643 67.8432 36.8169 67.9256Z" fill="#121212"/>
<path d="M39.7162 67.596C39.6959 67.6681 39.6857 68.6774 39.6959 69.831L39.7264 71.9424L40.8251 71.9733C41.8628 72.0042 41.9136 71.9939 41.9136 71.7879C41.9136 71.5922 41.8526 71.5819 40.9981 71.5819H40.0825V70.7064V69.8413L40.876 69.8104C41.4864 69.7898 41.6593 69.7486 41.6593 69.625C41.6593 69.5014 41.4864 69.4602 40.876 69.4396L40.0825 69.4087V68.595V67.7711H40.8963C41.5474 67.7711 41.7102 67.7402 41.7102 67.6166C41.7102 67.493 41.5372 67.4621 40.7437 67.4621C40.0519 67.4621 39.7569 67.5033 39.7162 67.596Z" fill="#121212"/>
<path d="M48.2212 67.6166C48.2212 67.7402 48.3534 67.7711 48.8316 67.7711H49.442V69.8825C49.442 71.9218 49.4522 71.9939 49.6454 71.9939C49.8387 71.9939 49.8489 71.9218 49.8489 69.8825V67.7711H50.4593C50.9374 67.7711 51.0697 67.7402 51.0697 67.6166C51.0697 67.4827 50.8459 67.4621 49.6454 67.4621C48.445 67.4621 48.2212 67.4827 48.2212 67.6166Z" fill="#121212"/>
<path d="M58.1909 69.7177C58.1909 71.9218 58.2011 71.9939 58.3944 71.9939C58.5877 71.9939 58.5978 71.9218 58.5978 71.0154V70.037H59.2082C59.7271 70.037 59.8593 69.9958 60.134 69.7486C60.6732 69.2542 60.7037 68.3067 60.1747 67.7814C59.9407 67.5445 59.8186 67.5136 59.0556 67.4724L58.1909 67.4415V69.7177ZM59.8898 68.1213C60.2154 68.5126 60.2052 69.1306 59.8695 69.4705C59.6762 69.6765 59.5236 69.728 59.1065 69.728H58.5978V68.7392V67.7402L59.1269 67.7917C59.5338 67.8329 59.7067 67.905 59.8898 68.1213Z" fill="#121212"/>
<path d="M63.3487 67.5342C63.2673 67.6578 61.7515 71.8601 61.7515 71.9425C61.7515 71.9734 61.8532 71.994 61.9753 71.9734C62.138 71.9528 62.2398 71.7983 62.3924 71.3451L62.5857 70.758H63.6335H64.6813L64.9052 71.376C65.0679 71.8292 65.1798 71.994 65.3223 71.994C65.5257 71.994 65.6173 72.2823 64.3762 68.8732C63.9184 67.6166 63.837 67.4622 63.6233 67.4622C63.5013 67.4622 63.369 67.493 63.3487 67.5342ZM64.4982 70.3048C64.4982 70.3254 64.1116 70.346 63.6335 70.346C63.1554 70.346 62.7688 70.3254 62.7688 70.2945C62.7688 70.2739 62.9316 69.7899 63.135 69.244C63.3283 68.6878 63.5216 68.1625 63.5419 68.0801C63.5826 67.9668 64.4982 70.0988 64.4982 70.3048Z" fill="#121212"/>
<path d="M67.4482 69.728C67.4482 71.6746 67.4686 71.9939 67.6008 71.9939C67.7229 71.9939 67.7534 71.8085 67.7534 70.9124V69.831H68.8725H69.9915V70.9124C69.9915 71.9218 70.0017 71.9939 70.195 71.9939C70.3883 71.9939 70.3985 71.9218 70.3985 69.728C70.3985 67.5342 70.3883 67.4621 70.195 67.4621C70.0017 67.4621 69.9915 67.5342 69.9915 68.4405V69.419H68.8725H67.7534V68.4405C67.7534 67.6372 67.7229 67.4621 67.6008 67.4621C67.4686 67.4621 67.4482 67.7814 67.4482 69.728Z" fill="#121212"/>
<path d="M29.6243 69.0071C29.1665 69.2028 29.1054 69.9959 29.5327 70.2946C30.2652 70.8199 31.0587 69.6766 30.3568 69.1204C30.0617 68.8835 29.9702 68.8732 29.6243 69.0071Z" fill="#121212"/>
</svg>
